solid OpenSCAD_Model
  facet normal -0.00321352 -0.00321352 -0.99999
    outer loop
      vertex -4.52599 -5.51493 -5.05
      vertex -21.05 -4.55 -5
      vertex -5.51493 -4.52599 -5.05
    endloop
  endfacet
  facet normal -0.00321518 -0.00214832 -0.999993
    outer loop
      vertex -5.51493 -4.52599 -5.05
      vertex -21.05 -4.55 -5
      vertex -6.29194 -3.36311 -5.05
    endloop
  endfacet
  facet normal -0.00327874 -0.00135809 -0.999994
    outer loop
      vertex -6.29194 -3.36311 -5.05
      vertex -21.05 -4.55 -5
      vertex -6.82715 -2.07099 -5.05
    endloop
  endfacet
  facet normal -0.00339494 -0.000691378 -0.999994
    outer loop
      vertex -10.8625 4.7 -5.04098
      vertex -10.1 14 -5.05
      vertex -6.82715 -2.07099 -5.05
    endloop
  endfacet
  facet normal -0.00339494 -0.000691378 -0.999994
    outer loop
      vertex -21.05 -4.55 -5
      vertex -10.1 14 -5.05
      vertex -13.0625 7.7 -5.03559
    endloop
  endfacet
  facet normal -0.00339494 -0.000691378 -0.999994
    outer loop
      vertex -21.05 -4.55 -5
      vertex -13.0625 7.7 -5.03559
      vertex -13.0625 4.7 -5.03351
    endloop
  endfacet
  facet normal -0.00339494 -0.000691378 -0.999994
    outer loop
      vertex -10.45 1.5 -5.04017
      vertex -13.0625 4.7 -5.03351
      vertex -6.82715 -2.07099 -5.05
    endloop
  endfacet
  facet normal -0.00339494 -0.000691378 -0.999994
    outer loop
      vertex -10.8625 7.7 -5.04306
      vertex -10.1 14 -5.05
      vertex -10.8625 4.7 -5.04098
    endloop
  endfacet
  facet normal -0.00339494 -0.000691378 -0.999994
    outer loop
      vertex -10.45 1.5 -5.04017
      vertex -6.82715 -2.07099 -5.05
      vertex -10.45 -1.5 -5.0381
    endloop
  endfacet
  facet normal -0.00339494 -0.000691378 -0.999994
    outer loop
      vertex -13.0625 7.7 -5.03559
      vertex -10.1 14 -5.05
      vertex -10.8625 7.7 -5.04306
    endloop
  endfacet
  facet normal -0.00339494 -0.000691378 -0.999994
    outer loop
      vertex -21.05 -4.55 -5
      vertex -13.0625 4.7 -5.03351
      vertex -12.45 1.5 -5.03338
    endloop
  endfacet
  facet normal -0.00339494 -0.000691378 -0.999994
    outer loop
      vertex -21.05 -4.55 -5
      vertex -12.45 1.5 -5.03338
      vertex -12.45 -1.5 -5.03131
    endloop
  endfacet
  facet normal -0.00339494 -0.000691378 -0.999994
    outer loop
      vertex -21.05 -4.55 -5
      vertex -12.45 -1.5 -5.03131
      vertex -6.82715 -2.07099 -5.05
    endloop
  endfacet
  facet normal -0.00339494 -0.000691378 -0.999994
    outer loop
      vertex -12.45 -1.5 -5.03131
      vertex -10.45 -1.5 -5.0381
      vertex -6.82715 -2.07099 -5.05
    endloop
  endfacet
  facet normal -0.00339494 -0.000691378 -0.999994
    outer loop
      vertex -12.45 1.5 -5.03338
      vertex -13.0625 4.7 -5.03351
      vertex -10.45 1.5 -5.04017
    endloop
  endfacet
  facet normal -0.00339494 -0.000691378 -0.999994
    outer loop
      vertex -10.8625 4.7 -5.04098
      vertex -6.82715 -2.07099 -5.05
      vertex -13.0625 4.7 -5.03351
    endloop
  endfacet
  facet normal -0.00456616 0 -0.99999
    outer loop
      vertex -21.05 -4.55 -5
      vertex -19.55 -1.5 -5.00685
      vertex -10.1 14 -5.05
    endloop
  endfacet
  facet normal -0.00456616 0 -0.99999
    outer loop
      vertex -21.05 -4.55 -5
      vertex -21.05 -1.5 -5
      vertex -19.55 -1.5 -5.00685
    endloop
  endfacet
  facet normal -0.00456616 0 -0.99999
    outer loop
      vertex -18.9375 7.7 -5.00965
      vertex -10.1 14 -5.05
      vertex -18.9375 4.7 -5.00965
    endloop
  endfacet
  facet normal -0.00456616 0 -0.99999
    outer loop
      vertex -10.1 14 -5.05
      vertex -19.55 1.5 -5.00685
      vertex -21.05 1.5 -5
    endloop
  endfacet
  facet normal -0.00456616 0 -0.99999
    outer loop
      vertex -18.9375 4.7 -5.00965
      vertex -21.05 1.5 -5
      vertex -21.05 4.7 -5
    endloop
  endfacet
  facet normal -0.00456616 0 -0.99999
    outer loop
      vertex -10.1 14 -5.05
      vertex -21.05 1.5 -5
      vertex -18.9375 4.7 -5.00965
    endloop
  endfacet
  facet normal -0.00456616 0 -0.99999
    outer loop
      vertex -10.1 14 -5.05
      vertex -18.9375 7.7 -5.00965
      vertex -21.05 7.7 -5
    endloop
  endfacet
  facet normal -0.00456616 0 -0.99999
    outer loop
      vertex -10.1 14 -5.05
      vertex -21.05 7.7 -5
      vertex -21.05 17.15 -5
    endloop
  endfacet
  facet normal -0.00456616 0 -0.99999
    outer loop
      vertex -10.1 14 -5.05
      vertex -21.05 17.15 -5
      vertex -10.1 38.1 -5.05
    endloop
  endfacet
  facet normal -0.00456616 0 -0.99999
    outer loop
      vertex -19.55 1.5 -5.00685
      vertex -10.1 14 -5.05
      vertex -19.55 -1.5 -5.00685
    endloop
  endfacet
  facet normal -1 0 0
    outer loop
      vertex -21.05 -4.55 -5
      vertex -21.05 -4.55 5
      vertex -21.05 -1.5 -5
    endloop
  endfacet
  facet normal -1 0 0
    outer loop
      vertex -21.05 -1.5 -5
      vertex -21.05 -4.55 5
      vertex -21.05 -1.5 5
    endloop
  endfacet
  facet normal -0.124331 -0.992241 0
    outer loop
      vertex -21.05 -4.55 5
      vertex -21.05 -4.55 -5
      vertex -0.699289 -7.1 -5.05
    endloop
  endfacet
  facet normal -0.124331 -0.992241 0
    outer loop
      vertex -0.699289 -7.1 5.05
      vertex -21.05 -4.55 5
      vertex -0.699289 -7.1 -5.05
    endloop
  endfacet
  facet normal -0.00663539 -0.0333584 -0.999421
    outer loop
      vertex -0.699289 -7.1 -5.05
      vertex -21.05 -4.55 -5
      vertex -2.07099 -6.82715 -5.05
    endloop
  endfacet
  facet normal -0.00370862 -0.00895339 -0.999953
    outer loop
      vertex -2.07099 -6.82715 -5.05
      vertex -21.05 -4.55 -5
      vertex -3.36311 -6.29194 -5.05
    endloop
  endfacet
  facet normal -0.00331561 -0.00496216 -0.999982
    outer loop
      vertex -3.36311 -6.29194 -5.05
      vertex -21.05 -4.55 -5
      vertex -4.52599 -5.51493 -5.05
    endloop
  endfacet
  facet normal 0 0 -1
    outer loop
      vertex -10.1 14 -5.05
      vertex -10.1 38.1 -5.05
      vertex -6.82715 -2.07099 -5.05
    endloop
  endfacet
  facet normal 0 0 -1
    outer loop
      vertex -7.46 35.485 -5.05
      vertex -10.1 38.1 -5.05
      vertex 7.1 38.1 -5.05
    endloop
  endfacet
  facet normal 0 0 -1
    outer loop
      vertex 7.1 28.515 -5.05
      vertex -4.1 20.45 -5.05
      vertex -7.46 28.515 -5.05
    endloop
  endfacet
  facet normal 0 0 -1
    outer loop
      vertex -7.46 28.515 -5.05
      vertex -10.1 38.1 -5.05
      vertex -7.46 35.485 -5.05
    endloop
  endfacet
  facet normal 0 0 -1
    outer loop
      vertex -6.82715 -2.07099 -5.05
      vertex -10.1 38.1 -5.05
      vertex -7.46 28.515 -5.05
    endloop
  endfacet
  facet normal 0 0 -1
    outer loop
      vertex -4.1 20.45 -5.05
      vertex 7.1 28.515 -5.05
      vertex 7.1 20.45 -5.05
    endloop
  endfacet
  facet normal 0 0 -1
    outer loop
      vertex -4.1 1.75627 -5.05
      vertex -6.82715 -2.07099 -5.05
      vertex -4.1 20.45 -5.05
    endloop
  endfacet
  facet normal 0 0 -1
    outer loop
      vertex -6.82715 -2.07099 -5.05
      vertex -4.1 1.75627 -5.05
      vertex -4.2886 1.30093 -5.05
    endloop
  endfacet
  facet normal 0 0 -1
    outer loop
      vertex 7.1 18.45 -5.05
      vertex 4.46 0.439272 -5.05
      vertex 4.2886 1.30093 -5.05
    endloop
  endfacet
  facet normal 0 0 -1
    outer loop
      vertex 7.1 18.45 -5.05
      vertex 4.2886 1.30093 -5.05
      vertex 3.9524 2.1126 -5.05
    endloop
  endfacet
  facet normal 0 0 -1
    outer loop
      vertex -4.2886 1.30093 -5.05
      vertex -4.46 0.439272 -5.05
      vertex -6.82715 -2.07099 -5.05
    endloop
  endfacet
  facet normal 0 0 -1
    outer loop
      vertex 7.1 18.45 -5.05
      vertex 3.9524 2.1126 -5.05
      vertex 3.46431 2.84308 -5.05
    endloop
  endfacet
  facet normal 0 0 -1
    outer loop
      vertex -4.46 0.439272 -5.05
      vertex -4.46 -0.439272 -5.05
      vertex -6.82715 -2.07099 -5.05
    endloop
  endfacet
  facet normal 0 0 -1
    outer loop
      vertex 7.1 18.45 -5.05
      vertex 3.46431 2.84308 -5.05
      vertex 2.84308 3.46431 -5.05
    endloop
  endfacet
  facet normal 0 0 -1
    outer loop
      vertex -4.46 -0.439272 -5.05
      vertex -4.2886 -1.30093 -5.05
      vertex -6.82715 -2.07099 -5.05
    endloop
  endfacet
  facet normal 0 0 -1
    outer loop
      vertex -4.2886 -1.30093 -5.05
      vertex -3.9524 -2.1126 -5.05
      vertex -6.82715 -2.07099 -5.05
    endloop
  endfacet
  facet normal 0 0 -1
    outer loop
      vertex 7.1 18.45 -5.05
      vertex 2.84308 3.46431 -5.05
      vertex 2.1126 3.9524 -5.05
    endloop
  endfacet
  facet normal 0 0 -1
    outer loop
      vertex -3.9524 -2.1126 -5.05
      vertex -3.46431 -2.84308 -5.05
      vertex -6.82715 -2.07099 -5.05
    endloop
  endfacet
  facet normal 0 0 -1
    outer loop
      vertex 7.1 18.45 -5.05
      vertex 2.1126 3.9524 -5.05
      vertex 1.30093 4.2886 -5.05
    endloop
  endfacet
  facet normal 0 0 -1
    outer loop
      vertex -3.46431 -2.84308 -5.05
      vertex -2.84308 -3.46431 -5.05
      vertex -6.82715 -2.07099 -5.05
    endloop
  endfacet
  facet normal 0 0 -1
    outer loop
      vertex 7.1 18.45 -5.05
      vertex 1.30093 4.2886 -5.05
      vertex 0.696605 4.40881 -5.05
    endloop
  endfacet
  facet normal 0 0 -1
    outer loop
      vertex -2.84308 -3.46431 -5.05
      vertex -2.1126 -3.9524 -5.05
      vertex -6.82715 -2.07099 -5.05
    endloop
  endfacet
  facet normal 0 0 -1
    outer loop
      vertex -2.1126 -3.9524 -5.05
      vertex -1.30093 -4.2886 -5.05
      vertex -6.82715 -2.07099 -5.05
    endloop
  endfacet
  facet normal 0 0 -1
    outer loop
      vertex 2.1126 -3.9524 -5.05
      vertex 6.82715 -2.07099 -5.05
      vertex 1.30093 -4.2886 -5.05
    endloop
  endfacet
  facet normal 0 0 -1
    outer loop
      vertex 2.84308 -3.46431 -5.05
      vertex 7.1 -0.699289 -5.05
      vertex 2.1126 -3.9524 -5.05
    endloop
  endfacet
  facet normal 0 0 -1
    outer loop
      vertex 3.46431 -2.84308 -5.05
      vertex 7.1 -0.699289 -5.05
      vertex 2.84308 -3.46431 -5.05
    endloop
  endfacet
  facet normal 0 0 -1
    outer loop
      vertex 3.9524 -2.1126 -5.05
      vertex 7.1 -0.699289 -5.05
      vertex 3.46431 -2.84308 -5.05
    endloop
  endfacet
  facet normal 0 0 -1
    outer loop
      vertex 4.2886 -1.30093 -5.05
      vertex 7.1 -0.699289 -5.05
      vertex 3.9524 -2.1126 -5.05
    endloop
  endfacet
  facet normal 0 0 -1
    outer loop
      vertex 7.1 18.45 -5.05
      vertex 0.696605 4.40881 -5.05
      vertex -2.1 6.15 -5.05
    endloop
  endfacet
  facet normal 0 0 -1
    outer loop
      vertex 7.1 18.45 -5.05
      vertex 4.46 -0.439272 -5.05
      vertex 4.46 0.439272 -5.05
    endloop
  endfacet
  facet normal 0 0 -1
    outer loop
      vertex -4.1 20.45 -5.05
      vertex -6.82715 -2.07099 -5.05
      vertex -7.46 28.515 -5.05
    endloop
  endfacet
  facet normal 0 0 -1
    outer loop
      vertex 4.46 -0.439272 -5.05
      vertex 7.1 18.45 -5.05
      vertex 7.1 -0.699289 -5.05
    endloop
  endfacet
  facet normal 0 0 -1
    outer loop
      vertex 4.46 -0.439272 -5.05
      vertex 7.1 -0.699289 -5.05
      vertex 4.2886 -1.30093 -5.05
    endloop
  endfacet
  facet normal 0 0 -1
    outer loop
      vertex 2.1126 -3.9524 -5.05
      vertex 7.1 -0.699289 -5.05
      vertex 6.82715 -2.07099 -5.05
    endloop
  endfacet
  facet normal 0 0 -1
    outer loop
      vertex 1.30093 -4.2886 -5.05
      vertex 6.82715 -2.07099 -5.05
      vertex 6.29194 -3.36311 -5.05
    endloop
  endfacet
  facet normal 0 0 -1
    outer loop
      vertex 1.30093 -4.2886 -5.05
      vertex 6.29194 -3.36311 -5.05
      vertex 0.439272 -4.46 -5.05
    endloop
  endfacet
  facet normal 0 0 -1
    outer loop
      vertex 0.439272 -4.46 -5.05
      vertex 6.29194 -3.36311 -5.05
      vertex 5.51493 -4.52599 -5.05
    endloop
  endfacet
  facet normal 0 0 -1
    outer loop
      vertex 0.439272 -4.46 -5.05
      vertex 5.51493 -4.52599 -5.05
      vertex -0.439272 -4.46 -5.05
    endloop
  endfacet
  facet normal 0 0 -1
    outer loop
      vertex -0.439272 -4.46 -5.05
      vertex 5.51493 -4.52599 -5.05
      vertex 4.52599 -5.51493 -5.05
    endloop
  endfacet
  facet normal 0 0 -1
    outer loop
      vertex -0.439272 -4.46 -5.05
      vertex 4.52599 -5.51493 -5.05
      vertex -1.30093 -4.2886 -5.05
    endloop
  endfacet
  facet normal 0 0 -1
    outer loop
      vertex -1.30093 -4.2886 -5.05
      vertex 4.52599 -5.51493 -5.05
      vertex 3.36311 -6.29194 -5.05
    endloop
  endfacet
  facet normal 0 0 -1
    outer loop
      vertex -1.30093 -4.2886 -5.05
      vertex 3.36311 -6.29194 -5.05
      vertex -6.82715 -2.07099 -5.05
    endloop
  endfacet
  facet normal 0 0 -1
    outer loop
      vertex -6.82715 -2.07099 -5.05
      vertex 3.36311 -6.29194 -5.05
      vertex 2.07099 -6.82715 -5.05
    endloop
  endfacet
  facet normal 0 0 -1
    outer loop
      vertex -6.82715 -2.07099 -5.05
      vertex 2.07099 -6.82715 -5.05
      vertex 0.699289 -7.1 -5.05
    endloop
  endfacet
  facet normal 0 0 -1
    outer loop
      vertex -6.82715 -2.07099 -5.05
      vertex 0.699289 -7.1 -5.05
      vertex -0.699289 -7.1 -5.05
    endloop
  endfacet
  facet normal 0 0 -1
    outer loop
      vertex -6.82715 -2.07099 -5.05
      vertex -0.699289 -7.1 -5.05
      vertex -2.07099 -6.82715 -5.05
    endloop
  endfacet
  facet normal 0 0 -1
    outer loop
      vertex -6.82715 -2.07099 -5.05
      vertex -2.07099 -6.82715 -5.05
      vertex -3.36311 -6.29194 -5.05
    endloop
  endfacet
  facet normal 0 0 -1
    outer loop
      vertex -6.82715 -2.07099 -5.05
      vertex -3.36311 -6.29194 -5.05
      vertex -4.52599 -5.51493 -5.05
    endloop
  endfacet
  facet normal 0 0 -1
    outer loop
      vertex -6.82715 -2.07099 -5.05
      vertex -4.52599 -5.51493 -5.05
      vertex -5.51493 -4.52599 -5.05
    endloop
  endfacet
  facet normal 0 0 -1
    outer loop
      vertex -6.82715 -2.07099 -5.05
      vertex -5.51493 -4.52599 -5.05
      vertex -6.29194 -3.36311 -5.05
    endloop
  endfacet
  facet normal 0 0 -1
    outer loop
      vertex -7.46 35.485 -5.05
      vertex 7.1 38.1 -5.05
      vertex 7.1 35.485 -5.05
    endloop
  endfacet
  facet normal 0 0 -1
    outer loop
      vertex 7.1 18.45 -5.05
      vertex -2.1 6.15 -5.05
      vertex -2.1 18.45 -5.05
    endloop
  endfacet
  facet normal 1 0 0
    outer loop
      vertex -13.0625 7.7 -5.03559
      vertex -13.0625 7.7 3.775
      vertex -13.0625 4.7 3.775
    endloop
  endfacet
  facet normal 1 0 0
    outer loop
      vertex -13.0625 4.7 -5.03351
      vertex -13.0625 7.7 -5.03559
      vertex -13.0625 4.7 3.775
    endloop
  endfacet
  facet normal 0 -1 0
    outer loop
      vertex -10.8625 7.7 -5.04306
      vertex -10.8625 7.7 5.04306
      vertex -12.925 7.7 5.03605
    endloop
  endfacet
  facet normal 0 -1 0
    outer loop
      vertex -13.0625 7.7 3.775
      vertex -10.8625 7.7 -5.04306
      vertex -12.925 7.7 3.775
    endloop
  endfacet
  facet normal 0 -1 0
    outer loop
      vertex -12.925 7.7 3.775
      vertex -10.8625 7.7 -5.04306
      vertex -12.925 7.7 5.03605
    endloop
  endfacet
  facet normal 0 -1 0
    outer loop
      vertex -13.0625 7.7 -5.03559
      vertex -10.8625 7.7 -5.04306
      vertex -13.0625 7.7 3.775
    endloop
  endfacet
  facet normal -1 0 0
    outer loop
      vertex -10.8625 7.7 5.04306
      vertex -10.8625 7.7 -5.04306
      vertex -10.8625 4.7 5.04098
    endloop
  endfacet
  facet normal -1 0 0
    outer loop
      vertex -10.8625 4.7 5.04098
      vertex -10.8625 7.7 -5.04306
      vertex -10.8625 4.7 -5.04098
    endloop
  endfacet
  facet normal 0 1 0
    outer loop
      vertex -13.0022 4.7 3.775
      vertex -13.0022 4.7 5.03372
      vertex -10.8625 4.7 5.04098
    endloop
  endfacet
  facet normal 0 1 0
    outer loop
      vertex -13.0022 4.7 3.775
      vertex -10.8625 4.7 5.04098
      vertex -10.8625 4.7 -5.04098
    endloop
  endfacet
  facet normal 0 1 0
    outer loop
      vertex -13.0022 4.7 3.775
      vertex -10.8625 4.7 -5.04098
      vertex -13.0625 4.7 3.775
    endloop
  endfacet
  facet normal 0 1 0
    outer loop
      vertex -10.8625 4.7 -5.04098
      vertex -13.0625 4.7 -5.03351
      vertex -13.0625 4.7 3.775
    endloop
  endfacet
  facet normal 1 0 0
    outer loop
      vertex -12.45 1.5 -5.03338
      vertex -12.45 1.5 5.03338
      vertex -12.45 -1.5 5.03131
    endloop
  endfacet
  facet normal 1 0 0
    outer loop
      vertex -12.45 -1.5 -5.03131
      vertex -12.45 1.5 -5.03338
      vertex -12.45 -1.5 5.03131
    endloop
  endfacet
  facet normal 0 -1 0
    outer loop
      vertex -10.45 1.5 -5.04017
      vertex -10.45 1.5 5.04017
      vertex -12.45 1.5 5.03338
    endloop
  endfacet
  facet normal 0 -1 0
    outer loop
      vertex -12.45 1.5 -5.03338
      vertex -10.45 1.5 -5.04017
      vertex -12.45 1.5 5.03338
    endloop
  endfacet
  facet normal -1 0 0
    outer loop
      vertex -10.45 1.5 5.04017
      vertex -10.45 1.5 -5.04017
      vertex -10.45 -1.5 5.0381
    endloop
  endfacet
  facet normal -1 0 0
    outer loop
      vertex -10.45 -1.5 5.0381
      vertex -10.45 1.5 -5.04017
      vertex -10.45 -1.5 -5.0381
    endloop
  endfacet
  facet normal 0 1 0
    outer loop
      vertex -10.45 -1.5 5.0381
      vertex -10.45 -1.5 -5.0381
      vertex -12.45 -1.5 5.03131
    endloop
  endfacet
  facet normal 0 1 0
    outer loop
      vertex -12.45 -1.5 5.03131
      vertex -10.45 -1.5 -5.0381
      vertex -12.45 -1.5 -5.03131
    endloop
  endfacet
  facet normal 0 1 0
    outer loop
      vertex -10.1 38.1 -5.05
      vertex -10.1 38.1 5.05
      vertex 7.1 38.1 -5.05
    endloop
  endfacet
  facet normal 0 1 0
    outer loop
      vertex 7.1 38.1 -5.05
      vertex -10.1 38.1 5.05
      vertex 7.1 38.1 5.05
    endloop
  endfacet
  facet normal -0.886245 0.463216 0
    outer loop
      vertex -21.05 17.15 -5
      vertex -21.05 17.15 5
      vertex -10.1 38.1 -5.05
    endloop
  endfacet
  facet normal -0.886245 0.463216 0
    outer loop
      vertex -19.075 20.9287 3.775
      vertex -21.05 17.15 5
      vertex -19.075 20.9287 5.00902
    endloop
  endfacet
  facet normal -0.886245 0.463216 0
    outer loop
      vertex -10.1 38.1 -5.05
      vertex -21.05 17.15 5
      vertex -19.075 20.9287 3.775
    endloop
  endfacet
  facet normal -0.886245 0.463216 0
    outer loop
      vertex -10.1 38.1 -5.05
      vertex -12.925 32.6951 3.775
      vertex -12.925 32.6951 5.0371
    endloop
  endfacet
  facet normal -0.886245 0.463216 0
    outer loop
      vertex -10.1 38.1 -5.05
      vertex -12.925 32.6951 5.0371
      vertex -10.1 38.1 5.05
    endloop
  endfacet
  facet normal -0.886245 0.463216 0
    outer loop
      vertex -12.925 32.6951 3.775
      vertex -10.1 38.1 -5.05
      vertex -19.075 20.9287 3.775
    endloop
  endfacet
  facet normal -1 0 0
    outer loop
      vertex -21.05 11.2834 2.8
      vertex -21.05 7.7 5
      vertex -21.05 17.15 5
    endloop
  endfacet
  facet normal -1 0 0
    outer loop
      vertex -21.05 14.5166 2.8
      vertex -21.05 11.2834 2.8
      vertex -21.05 17.15 5
    endloop
  endfacet
  facet normal -1 0 0
    outer loop
      vertex -21.05 7.7 -5
      vertex -21.05 7.7 5
      vertex -21.05 9.66684 2.13275e-07
    endloop
  endfacet
  facet normal -1 0 0
    outer loop
      vertex -21.05 7.7 -5
      vertex -21.05 9.66684 2.13275e-07
      vertex -21.05 11.2834 -2.8
    endloop
  endfacet
  facet normal -1 0 0
    outer loop
      vertex -21.05 7.7 -5
      vertex -21.05 11.2834 -2.8
      vertex -21.05 17.15 -5
    endloop
  endfacet
  facet normal -1 0 0
    outer loop
      vertex -21.05 14.5166 -2.8
      vertex -21.05 17.15 -5
      vertex -21.05 11.2834 -2.8
    endloop
  endfacet
  facet normal -1 0 0
    outer loop
      vertex -21.05 16.1332 -2.13275e-07
      vertex -21.05 17.15 -5
      vertex -21.05 14.5166 -2.8
    endloop
  endfacet
  facet normal -1 0 0
    outer loop
      vertex -21.05 17.15 -5
      vertex -21.05 16.1332 -2.13275e-07
      vertex -21.05 17.15 5
    endloop
  endfacet
  facet normal -1 0 0
    outer loop
      vertex -21.05 16.1332 -2.13275e-07
      vertex -21.05 14.5166 2.8
      vertex -21.05 17.15 5
    endloop
  endfacet
  facet normal -1 0 0
    outer loop
      vertex -21.05 9.66684 2.13275e-07
      vertex -21.05 7.7 5
      vertex -21.05 11.2834 2.8
    endloop
  endfacet
  facet normal 0 -1 0
    outer loop
      vertex -18.9375 7.7 -5.00965
      vertex -18.9375 7.7 3.775
      vertex -19.075 7.7 3.775
    endloop
  endfacet
  facet normal 0 -1 0
    outer loop
      vertex -21.05 7.7 5
      vertex -18.9375 7.7 -5.00965
      vertex -19.075 7.7 3.775
    endloop
  endfacet
  facet normal 0 -1 0
    outer loop
      vertex -19.075 7.7 5.00902
      vertex -21.05 7.7 5
      vertex -19.075 7.7 3.775
    endloop
  endfacet
  facet normal 0 -1 0
    outer loop
      vertex -21.05 7.7 5
      vertex -21.05 7.7 -5
      vertex -18.9375 7.7 -5.00965
    endloop
  endfacet
  facet normal -1 0 0
    outer loop
      vertex -18.9375 7.7 3.775
      vertex -18.9375 7.7 -5.00965
      vertex -18.9375 4.7 3.775
    endloop
  endfacet
  facet normal -1 0 0
    outer loop
      vertex -18.9375 4.7 3.775
      vertex -18.9375 7.7 -5.00965
      vertex -18.9375 4.7 -5.00965
    endloop
  endfacet
  facet normal 0 1 0
    outer loop
      vertex -18.9978 4.7 5.00937
      vertex -18.9978 4.7 3.775
      vertex -21.05 4.7 5
    endloop
  endfacet
  facet normal 0 1 0
    outer loop
      vertex -18.9375 4.7 -5.00965
      vertex -18.9978 4.7 3.775
      vertex -18.9375 4.7 3.775
    endloop
  endfacet
  facet normal 0 1 0
    outer loop
      vertex -21.05 4.7 5
      vertex -18.9978 4.7 3.775
      vertex -18.9375 4.7 -5.00965
    endloop
  endfacet
  facet normal 0 1 0
    outer loop
      vertex -21.05 4.7 5
      vertex -18.9375 4.7 -5.00965
      vertex -21.05 4.7 -5
    endloop
  endfacet
  facet normal -1 0 0
    outer loop
      vertex -21.05 1.5 -5
      vertex -21.05 1.5 5
      vertex -21.05 4.7 -5
    endloop
  endfacet
  facet normal -1 0 0
    outer loop
      vertex -21.05 4.7 -5
      vertex -21.05 1.5 5
      vertex -21.05 4.7 5
    endloop
  endfacet
  facet normal 0 -1 0
    outer loop
      vertex -19.55 1.5 -5.00685
      vertex -19.55 1.5 5.00685
      vertex -21.05 1.5 5
    endloop
  endfacet
  facet normal 0 -1 0
    outer loop
      vertex -21.05 1.5 -5
      vertex -19.55 1.5 -5.00685
      vertex -21.05 1.5 5
    endloop
  endfacet
  facet normal -1 0 0
    outer loop
      vertex -19.55 1.5 5.00685
      vertex -19.55 1.5 -5.00685
      vertex -19.55 -1.5 5.00685
    endloop
  endfacet
  facet normal -1 0 0
    outer loop
      vertex -19.55 -1.5 5.00685
      vertex -19.55 1.5 -5.00685
      vertex -19.55 -1.5 -5.00685
    endloop
  endfacet
  facet normal 0 1 0
    outer loop
      vertex -19.55 -1.5 5.00685
      vertex -19.55 -1.5 -5.00685
      vertex -21.05 -1.5 5
    endloop
  endfacet
  facet normal 0 1 0
    outer loop
      vertex -21.05 -1.5 5
      vertex -19.55 -1.5 -5.00685
      vertex -21.05 -1.5 -5
    endloop
  endfacet
  facet normal -0.00456616 0 0.99999
    outer loop
      vertex -19.55 -1.5 5.00685
      vertex -21.05 -4.55 5
      vertex -18.05 0.532192 5.0137
    endloop
  endfacet
  facet normal -0.00456616 0 0.99999
    outer loop
      vertex -19.55 1.5 5.00685
      vertex -18.05 0.532192 5.0137
      vertex -18.05 2.55 5.0137
    endloop
  endfacet
  facet normal -0.00456616 0 0.99999
    outer loop
      vertex -21.05 4.7 5
      vertex -21.05 1.5 5
      vertex -18.9978 4.7 5.00937
    endloop
  endfacet
  facet normal -0.00456616 0 0.99999
    outer loop
      vertex -18.9978 4.7 5.00937
      vertex -19.55 1.5 5.00685
      vertex -18.05 2.55 5.0137
    endloop
  endfacet
  facet normal -0.00456616 0 0.99999
    outer loop
      vertex -21.05 -1.5 5
      vertex -21.05 -4.55 5
      vertex -19.55 -1.5 5.00685
    endloop
  endfacet
  facet normal -0.00456616 0 0.99999
    outer loop
      vertex -21.05 1.5 5
      vertex -19.55 1.5 5.00685
      vertex -18.9978 4.7 5.00937
    endloop
  endfacet
  facet normal -0.00456616 0 0.99999
    outer loop
      vertex -19.55 1.5 5.00685
      vertex -19.55 -1.5 5.00685
      vertex -18.05 0.532192 5.0137
    endloop
  endfacet
  facet normal -0.00321352 -0.00321352 0.99999
    outer loop
      vertex -5.51493 -4.52599 5.05
      vertex -21.05 -4.55 5
      vertex -4.52599 -5.51493 5.05
    endloop
  endfacet
  facet normal -0.00331561 -0.00496216 0.999982
    outer loop
      vertex -4.52599 -5.51493 5.05
      vertex -21.05 -4.55 5
      vertex -3.36311 -6.29194 5.05
    endloop
  endfacet
  facet normal -0.00370862 -0.00895339 0.999953
    outer loop
      vertex -3.36311 -6.29194 5.05
      vertex -21.05 -4.55 5
      vertex -2.07099 -6.82715 5.05
    endloop
  endfacet
  facet normal -0.00663539 -0.0333584 0.999421
    outer loop
      vertex -2.07099 -6.82715 5.05
      vertex -21.05 -4.55 5
      vertex -0.699289 -7.1 5.05
    endloop
  endfacet
  facet normal -0.00339494 -0.000691378 0.999994
    outer loop
      vertex -13.95 -1.55 5.02618
      vertex -21.05 -4.55 5
      vertex -6.82715 -2.07099 5.05
    endloop
  endfacet
  facet normal -0.00339494 -0.000691378 0.999994
    outer loop
      vertex -10.1 14 5.05
      vertex -10.8625 7.7 5.04306
      vertex -6.82715 -2.07099 5.05
    endloop
  endfacet
  facet normal -0.00339494 -0.000691378 0.999994
    outer loop
      vertex -10.1 14 5.05
      vertex -12.925 9.21427 5.0371
      vertex -10.8625 7.7 5.04306
    endloop
  endfacet
  facet normal -0.00339494 -0.000691378 0.999994
    outer loop
      vertex -10.8625 4.7 5.04098
      vertex -13.0022 4.7 5.03372
      vertex -6.82715 -2.07099 5.05
    endloop
  endfacet
  facet normal -0.00339494 -0.000691378 0.999994
    outer loop
      vertex -12.45 -1.5 5.03131
      vertex -13.95 -1.55 5.02618
      vertex -6.82715 -2.07099 5.05
    endloop
  endfacet
  facet normal -0.00339494 -0.000691378 0.999994
    outer loop
      vertex -18.05 -1.55 5.01226
      vertex -21.05 -4.55 5
      vertex -13.95 -1.55 5.02618
    endloop
  endfacet
  facet normal -0.00339494 -0.000691378 0.999994
    outer loop
      vertex -18.05 0.532192 5.0137
      vertex -21.05 -4.55 5
      vertex -18.05 -1.55 5.01226
    endloop
  endfacet
  facet normal -0.00339494 -0.000691378 0.999994
    outer loop
      vertex -10.45 -1.5 5.0381
      vertex -12.45 -1.5 5.03131
      vertex -6.82715 -2.07099 5.05
    endloop
  endfacet
  facet normal -0.00339494 -0.000691378 0.999994
    outer loop
      vertex -10.45 1.5 5.04017
      vertex -10.45 -1.5 5.0381
      vertex -6.82715 -2.07099 5.05
    endloop
  endfacet
  facet normal -0.00339494 -0.000691378 0.999994
    outer loop
      vertex -13.0022 4.7 5.03372
      vertex -10.45 1.5 5.04017
      vertex -6.82715 -2.07099 5.05
    endloop
  endfacet
  facet normal -0.00339494 -0.000691378 0.999994
    outer loop
      vertex -13.0022 4.7 5.03372
      vertex -13.95 2.55 5.02901
      vertex -10.45 1.5 5.04017
    endloop
  endfacet
  facet normal -0.00339494 -0.000691378 0.999994
    outer loop
      vertex -12.45 -1.5 5.03131
      vertex -12.45 1.5 5.03338
      vertex -13.95 2.55 5.02901
    endloop
  endfacet
  facet normal -0.00339494 -0.000691378 0.999994
    outer loop
      vertex -10.8625 7.7 5.04306
      vertex -10.8625 4.7 5.04098
      vertex -6.82715 -2.07099 5.05
    endloop
  endfacet
  facet normal -0.00339494 -0.000691378 0.999994
    outer loop
      vertex -12.925 7.7 5.03605
      vertex -10.8625 7.7 5.04306
      vertex -12.925 9.21427 5.0371
    endloop
  endfacet
  facet normal -0.00339494 -0.000691378 0.999994
    outer loop
      vertex -12.45 1.5 5.03338
      vertex -10.45 1.5 5.04017
      vertex -13.95 2.55 5.02901
    endloop
  endfacet
  facet normal -0.00339494 -0.000691378 0.999994
    outer loop
      vertex -13.95 2.55 5.02901
      vertex -13.95 -1.55 5.02618
      vertex -12.45 -1.5 5.03131
    endloop
  endfacet
  facet normal -0.00327874 -0.00135809 0.999994
    outer loop
      vertex -6.82715 -2.07099 5.05
      vertex -21.05 -4.55 5
      vertex -6.29194 -3.36311 5.05
    endloop
  endfacet
  facet normal -0.00321518 -0.00214832 0.999993
    outer loop
      vertex -6.29194 -3.36311 5.05
      vertex -21.05 -4.55 5
      vertex -5.51493 -4.52599 5.05
    endloop
  endfacet
  facet normal 0 -1 0
    outer loop
      vertex -0.699289 -7.1 5.05
      vertex -0.699289 -7.1 -5.05
      vertex 0.699289 -7.1 -5.05
    endloop
  endfacet
  facet normal 0 -1 0
    outer loop
      vertex 0.699289 -7.1 5.05
      vertex -0.699289 -7.1 5.05
      vertex 0.699289 -7.1 -5.05
    endloop
  endfacet
  facet normal 0 0 1
    outer loop
      vertex -10.1 38.1 5.05
      vertex -10.1 14 5.05
      vertex -6.82715 -2.07099 5.05
    endloop
  endfacet
  facet normal 0 0 1
    outer loop
      vertex -5.51493 -4.52599 5.05
      vertex -10.1 38.1 5.05
      vertex -6.29194 -3.36311 5.05
    endloop
  endfacet
  facet normal 0 0 1
    outer loop
      vertex -6.29194 -3.36311 5.05
      vertex -10.1 38.1 5.05
      vertex -6.82715 -2.07099 5.05
    endloop
  endfacet
  facet normal 0 0 1
    outer loop
      vertex -4.52599 -5.51493 5.05
      vertex -10.1 38.1 5.05
      vertex -5.51493 -4.52599 5.05
    endloop
  endfacet
  facet normal 0 0 1
    outer loop
      vertex -3.36311 -6.29194 5.05
      vertex -10.1 38.1 5.05
      vertex -4.52599 -5.51493 5.05
    endloop
  endfacet
  facet normal 0 0 1
    outer loop
      vertex -4.1 -0.403815 5.05
      vertex -10.1 38.1 5.05
      vertex -3.36311 -6.29194 5.05
    endloop
  endfacet
  facet normal 0 0 1
    outer loop
      vertex -2.6136 -3.18468 5.05
      vertex -3.18468 -2.6136 5.05
      vertex -2.07099 -6.82715 5.05
    endloop
  endfacet
  facet normal 0 0 1
    outer loop
      vertex -1.19593 -3.94244 5.05
      vertex -1.94208 -3.63337 5.05
      vertex -0.699289 -7.1 5.05
    endloop
  endfacet
  facet normal 0 0 1
    outer loop
      vertex 1.94208 -3.63337 5.05
      vertex 1.19593 -3.94244 5.05
      vertex 2.07099 -6.82715 5.05
    endloop
  endfacet
  facet normal 0 0 1
    outer loop
      vertex -4.1 -0.403815 5.05
      vertex -4.1 20.45 5.05
      vertex -7.1 28.875 5.05
    endloop
  endfacet
  facet normal 0 0 1
    outer loop
      vertex -7.1 28.875 5.05
      vertex -7.1 35.125 5.05
      vertex -10.1 38.1 5.05
    endloop
  endfacet
  facet normal 0 0 1
    outer loop
      vertex 6.82715 -2.07099 5.05
      vertex -2.1 18.45 5.05
      vertex 6.29194 -3.36311 5.05
    endloop
  endfacet
  facet normal 0 0 1
    outer loop
      vertex 1.19593 -3.94244 5.05
      vertex 0.403815 -4.1 5.05
      vertex 2.07099 -6.82715 5.05
    endloop
  endfacet
  facet normal 0 0 1
    outer loop
      vertex 3.63337 -1.94208 5.05
      vertex 3.18468 -2.6136 5.05
      vertex 4.52599 -5.51493 5.05
    endloop
  endfacet
  facet normal 0 0 1
    outer loop
      vertex 4.1 0.403815 5.05
      vertex 4.1 -0.403815 5.05
      vertex 5.51493 -4.52599 5.05
    endloop
  endfacet
  facet normal 0 0 1
    outer loop
      vertex 6.29194 -3.36311 5.05
      vertex 3.63337 1.94208 5.05
      vertex 3.94244 1.19593 5.05
    endloop
  endfacet
  facet normal 0 0 1
    outer loop
      vertex 6.29194 -3.36311 5.05
      vertex 4.1 0.403815 5.05
      vertex 5.51493 -4.52599 5.05
    endloop
  endfacet
  facet normal 0 0 1
    outer loop
      vertex 5.51493 -4.52599 5.05
      vertex 3.94244 -1.19593 5.05
      vertex 4.52599 -5.51493 5.05
    endloop
  endfacet
  facet normal 0 0 1
    outer loop
      vertex 3.94244 -1.19593 5.05
      vertex 3.63337 -1.94208 5.05
      vertex 4.52599 -5.51493 5.05
    endloop
  endfacet
  facet normal 0 0 1
    outer loop
      vertex 4.52599 -5.51493 5.05
      vertex 3.18468 -2.6136 5.05
      vertex 3.36311 -6.29194 5.05
    endloop
  endfacet
  facet normal 0 0 1
    outer loop
      vertex -4.1 -0.403815 5.05
      vertex -7.1 28.875 5.05
      vertex -10.1 38.1 5.05
    endloop
  endfacet
  facet normal 0 0 1
    outer loop
      vertex 3.18468 -2.6136 5.05
      vertex 2.6136 -3.18468 5.05
      vertex 3.36311 -6.29194 5.05
    endloop
  endfacet
  facet normal 0 0 1
    outer loop
      vertex -2.1 6.15 5.05
      vertex 1.94208 3.63337 5.05
      vertex -2.1 18.45 5.05
    endloop
  endfacet
  facet normal 0 0 1
    outer loop
      vertex 3.36311 -6.29194 5.05
      vertex 1.94208 -3.63337 5.05
      vertex 2.07099 -6.82715 5.05
    endloop
  endfacet
  facet normal 0 0 1
    outer loop
      vertex 2.07099 -6.82715 5.05
      vertex 0.403815 -4.1 5.05
      vertex 0.699289 -7.1 5.05
    endloop
  endfacet
  facet normal 0 0 1
    outer loop
      vertex -7.1 35.125 5.05
      vertex 7.1 35.125 5.05
      vertex -10.1 38.1 5.05
    endloop
  endfacet
  facet normal 0 0 1
    outer loop
      vertex 0.699289 -7.1 5.05
      vertex -0.403815 -4.1 5.05
      vertex -0.699289 -7.1 5.05
    endloop
  endfacet
  facet normal 0 0 1
    outer loop
      vertex -0.403815 -4.1 5.05
      vertex -1.19593 -3.94244 5.05
      vertex -0.699289 -7.1 5.05
    endloop
  endfacet
  facet normal 0 0 1
    outer loop
      vertex 7.1 28.875 5.05
      vertex -7.1 28.875 5.05
      vertex -4.1 20.45 5.05
    endloop
  endfacet
  facet normal 0 0 1
    outer loop
      vertex -0.699289 -7.1 5.05
      vertex -1.94208 -3.63337 5.05
      vertex -2.07099 -6.82715 5.05
    endloop
  endfacet
  facet normal 0 0 1
    outer loop
      vertex -1.94208 -3.63337 5.05
      vertex -2.6136 -3.18468 5.05
      vertex -2.07099 -6.82715 5.05
    endloop
  endfacet
  facet normal 0 0 1
    outer loop
      vertex -2.07099 -6.82715 5.05
      vertex -3.18468 -2.6136 5.05
      vertex -3.36311 -6.29194 5.05
    endloop
  endfacet
  facet normal 0 0 1
    outer loop
      vertex -3.18468 -2.6136 5.05
      vertex -3.63337 -1.94208 5.05
      vertex -3.36311 -6.29194 5.05
    endloop
  endfacet
  facet normal 0 0 1
    outer loop
      vertex -3.63337 -1.94208 5.05
      vertex -3.94244 -1.19593 5.05
      vertex -3.36311 -6.29194 5.05
    endloop
  endfacet
  facet normal 0 0 1
    outer loop
      vertex -3.94244 -1.19593 5.05
      vertex -4.1 -0.403815 5.05
      vertex -3.36311 -6.29194 5.05
    endloop
  endfacet
  facet normal 0 0 1
    outer loop
      vertex 7.1 38.1 5.05
      vertex -10.1 38.1 5.05
      vertex 7.1 35.125 5.05
    endloop
  endfacet
  facet normal 0 0 1
    outer loop
      vertex 7.1 18.45 5.05
      vertex 6.82715 -2.07099 5.05
      vertex 7.1 -0.699289 5.05
    endloop
  endfacet
  facet normal 0 0 1
    outer loop
      vertex 7.1 18.45 5.05
      vertex -2.1 18.45 5.05
      vertex 6.82715 -2.07099 5.05
    endloop
  endfacet
  facet normal 0 0 1
    outer loop
      vertex 7.1 28.875 5.05
      vertex -4.1 20.45 5.05
      vertex 7.1 20.45 5.05
    endloop
  endfacet
  facet normal 0 0 1
    outer loop
      vertex -2.1 18.45 5.05
      vertex 3.63337 1.94208 5.05
      vertex 6.29194 -3.36311 5.05
    endloop
  endfacet
  facet normal 0 0 1
    outer loop
      vertex -2.1 18.45 5.05
      vertex 3.18468 2.6136 5.05
      vertex 3.63337 1.94208 5.05
    endloop
  endfacet
  facet normal 0 0 1
    outer loop
      vertex 0.403815 -4.1 5.05
      vertex -0.403815 -4.1 5.05
      vertex 0.699289 -7.1 5.05
    endloop
  endfacet
  facet normal 0 0 1
    outer loop
      vertex 3.94244 1.19593 5.05
      vertex 4.1 0.403815 5.05
      vertex 6.29194 -3.36311 5.05
    endloop
  endfacet
  facet normal 0 0 1
    outer loop
      vertex -2.1 18.45 5.05
      vertex 1.94208 3.63337 5.05
      vertex 2.6136 3.18468 5.05
    endloop
  endfacet
  facet normal 0 0 1
    outer loop
      vertex 2.6136 3.18468 5.05
      vertex 3.18468 2.6136 5.05
      vertex -2.1 18.45 5.05
    endloop
  endfacet
  facet normal 0 0 1
    outer loop
      vertex 2.6136 -3.18468 5.05
      vertex 1.94208 -3.63337 5.05
      vertex 3.36311 -6.29194 5.05
    endloop
  endfacet
  facet normal 0 0 1
    outer loop
      vertex 4.1 -0.403815 5.05
      vertex 3.94244 -1.19593 5.05
      vertex 5.51493 -4.52599 5.05
    endloop
  endfacet
  facet normal 0.19509 -0.980785 0
    outer loop
      vertex 0.699289 -7.1 5.05
      vertex 0.699289 -7.1 -5.05
      vertex 2.07099 -6.82715 -5.05
    endloop
  endfacet
  facet normal 0.19509 -0.980785 0
    outer loop
      vertex 2.07099 -6.82715 5.05
      vertex 0.699289 -7.1 5.05
      vertex 2.07099 -6.82715 -5.05
    endloop
  endfacet
  facet normal 0.382683 -0.92388 0
    outer loop
      vertex 2.07099 -6.82715 5.05
      vertex 2.07099 -6.82715 -5.05
      vertex 3.36311 -6.29194 -5.05
    endloop
  endfacet
  facet normal 0.382683 -0.92388 0
    outer loop
      vertex 3.36311 -6.29194 5.05
      vertex 2.07099 -6.82715 5.05
      vertex 3.36311 -6.29194 -5.05
    endloop
  endfacet
  facet normal 0.555571 -0.831469 0
    outer loop
      vertex 3.36311 -6.29194 5.05
      vertex 3.36311 -6.29194 -5.05
      vertex 4.52599 -5.51493 -5.05
    endloop
  endfacet
  facet normal 0.555571 -0.831469 0
    outer loop
      vertex 4.52599 -5.51493 5.05
      vertex 3.36311 -6.29194 5.05
      vertex 4.52599 -5.51493 -5.05
    endloop
  endfacet
  facet normal 0.707107 -0.707107 0
    outer loop
      vertex 4.52599 -5.51493 5.05
      vertex 4.52599 -5.51493 -5.05
      vertex 5.51493 -4.52599 -5.05
    endloop
  endfacet
  facet normal 0.707107 -0.707107 0
    outer loop
      vertex 5.51493 -4.52599 5.05
      vertex 4.52599 -5.51493 5.05
      vertex 5.51493 -4.52599 -5.05
    endloop
  endfacet
  facet normal 0.831469 -0.55557 0
    outer loop
      vertex 5.51493 -4.52599 5.05
      vertex 5.51493 -4.52599 -5.05
      vertex 6.29194 -3.36311 -5.05
    endloop
  endfacet
  facet normal 0.831469 -0.55557 0
    outer loop
      vertex 6.29194 -3.36311 5.05
      vertex 5.51493 -4.52599 5.05
      vertex 6.29194 -3.36311 -5.05
    endloop
  endfacet
  facet normal 0.923879 -0.382684 0
    outer loop
      vertex 6.29194 -3.36311 5.05
      vertex 6.29194 -3.36311 -5.05
      vertex 6.82715 -2.07099 -5.05
    endloop
  endfacet
  facet normal 0.923879 -0.382684 0
    outer loop
      vertex 6.82715 -2.07099 5.05
      vertex 6.29194 -3.36311 5.05
      vertex 6.82715 -2.07099 -5.05
    endloop
  endfacet
  facet normal 0.980785 -0.19509 0
    outer loop
      vertex 6.82715 -2.07099 5.05
      vertex 6.82715 -2.07099 -5.05
      vertex 7.1 -0.699289 -5.05
    endloop
  endfacet
  facet normal 0.980785 -0.19509 0
    outer loop
      vertex 7.1 -0.699289 5.05
      vertex 6.82715 -2.07099 5.05
      vertex 7.1 -0.699289 -5.05
    endloop
  endfacet
  facet normal 1 0 0
    outer loop
      vertex 7.1 11.2834 -2.8
      vertex 7.1 -0.699289 -5.05
      vertex 7.1 18.45 -5.05
    endloop
  endfacet
  facet normal 1 0 0
    outer loop
      vertex 7.1 14.5166 2.8
      vertex 7.1 16.1332 -2.13275e-07
      vertex 7.1 18.45 5.05
    endloop
  endfacet
  facet normal 1 0 0
    outer loop
      vertex 7.1 11.2834 2.8
      vertex 7.1 -0.699289 5.05
      vertex 7.1 9.66684 2.13275e-07
    endloop
  endfacet
  facet normal 1 0 0
    outer loop
      vertex 7.1 18.45 5.05
      vertex 7.1 -0.699289 5.05
      vertex 7.1 11.2834 2.8
    endloop
  endfacet
  facet normal 1 0 0
    outer loop
      vertex 7.1 16.1332 -2.13275e-07
      vertex 7.1 14.5166 -2.8
      vertex 7.1 18.45 -5.05
    endloop
  endfacet
  facet normal 1 0 0
    outer loop
      vertex 7.1 18.45 5.05
      vertex 7.1 11.2834 2.8
      vertex 7.1 14.5166 2.8
    endloop
  endfacet
  facet normal 1 0 0
    outer loop
      vertex 7.1 18.45 5.05
      vertex 7.1 16.1332 -2.13275e-07
      vertex 7.1 18.45 -5.05
    endloop
  endfacet
  facet normal 1 0 0
    outer loop
      vertex 7.1 -0.699289 5.05
      vertex 7.1 -0.699289 -5.05
      vertex 7.1 11.2834 -2.8
    endloop
  endfacet
  facet normal 1 0 0
    outer loop
      vertex 7.1 14.5166 -2.8
      vertex 7.1 11.2834 -2.8
      vertex 7.1 18.45 -5.05
    endloop
  endfacet
  facet normal 1 0 0
    outer loop
      vertex 7.1 11.2834 -2.8
      vertex 7.1 9.66684 2.13275e-07
      vertex 7.1 -0.699289 5.05
    endloop
  endfacet
  facet normal 0 1 0
    outer loop
      vertex 7.1 18.45 5.05
      vertex 7.1 18.45 -5.05
      vertex -2.1 18.45 5.05
    endloop
  endfacet
  facet normal 0 1 0
    outer loop
      vertex -2.1 18.45 5.05
      vertex 7.1 18.45 -5.05
      vertex -2.1 18.45 -5.05
    endloop
  endfacet
  facet normal -1 0 0
    outer loop
      vertex -2.1 12.0051 -1.55
      vertex -2.1 18.45 -5.05
      vertex -2.1 6.15 -5.05
    endloop
  endfacet
  facet normal -1 0 0
    outer loop
      vertex -2.1 14.6898 -7.16689e-08
      vertex -2.1 18.45 -5.05
      vertex -2.1 13.7949 -1.55
    endloop
  endfacet
  facet normal -1 0 0
    outer loop
      vertex -2.1 6.15 5.05
      vertex -2.1 11.1102 7.16689e-08
      vertex -2.1 6.15 -5.05
    endloop
  endfacet
  facet normal -1 0 0
    outer loop
      vertex -2.1 11.1102 7.16689e-08
      vertex -2.1 12.0051 -1.55
      vertex -2.1 6.15 -5.05
    endloop
  endfacet
  facet normal -1 0 0
    outer loop
      vertex -2.1 13.7949 -1.55
      vertex -2.1 18.45 -5.05
      vertex -2.1 12.0051 -1.55
    endloop
  endfacet
  facet normal -1 0 0
    outer loop
      vertex -2.1 18.45 5.05
      vertex -2.1 18.45 -5.05
      vertex -2.1 14.6898 -7.16689e-08
    endloop
  endfacet
  facet normal -1 0 0
    outer loop
      vertex -2.1 18.45 5.05
      vertex -2.1 14.6898 -7.16689e-08
      vertex -2.1 13.7949 1.55
    endloop
  endfacet
  facet normal -1 0 0
    outer loop
      vertex -2.1 18.45 5.05
      vertex -2.1 13.7949 1.55
      vertex -2.1 6.15 5.05
    endloop
  endfacet
  facet normal -1 0 0
    outer loop
      vertex -2.1 12.0051 1.55
      vertex -2.1 6.15 5.05
      vertex -2.1 13.7949 1.55
    endloop
  endfacet
  facet normal -1 0 0
    outer loop
      vertex -2.1 11.1102 7.16689e-08
      vertex -2.1 6.15 5.05
      vertex -2.1 12.0051 1.55
    endloop
  endfacet
  facet normal -0.528537 -0.84891 0
    outer loop
      vertex 1.94208 3.63337 5.05
      vertex 0.993491 4.22397 -4.8855
      vertex 1.2356 4.07323 -4.75136
    endloop
  endfacet
  facet normal -0.528537 -0.84891 0
    outer loop
      vertex 0.696605 4.40881 -5.05
      vertex 0.993491 4.22397 -4.8855
      vertex 1.94208 3.63337 5.05
    endloop
  endfacet
  facet normal -0.528537 -0.84891 0
    outer loop
      vertex 1.94208 3.63337 -4.57
      vertex 1.94208 3.63337 5.05
      vertex 1.2356 4.07323 -4.75136
    endloop
  endfacet
  facet normal -0.528537 -0.84891 0
    outer loop
      vertex 1.94208 3.63337 5.05
      vertex -2.1 6.15 5.05
      vertex 0.696605 4.40881 -5.05
    endloop
  endfacet
  facet normal -0.528537 -0.84891 0
    outer loop
      vertex -2.1 6.15 5.05
      vertex -2.1 6.15 -5.05
      vertex 0.696605 4.40881 -5.05
    endloop
  endfacet
  facet normal -0.156072 -0.784628 -0.6
    outer loop
      vertex 1.30093 4.2886 -5.05
      vertex 0.993491 4.22397 -4.8855
      vertex 0.696605 4.40881 -5.05
    endloop
  endfacet
  facet normal -0.156072 -0.784628 -0.600001
    outer loop
      vertex 0.993491 4.22397 -4.8855
      vertex 1.30093 4.2886 -5.05
      vertex 1.2356 4.07323 -4.75136
    endloop
  endfacet
  facet normal -0.306146 -0.739103 -0.600001
    outer loop
      vertex 1.2356 4.07323 -4.75136
      vertex 1.30093 4.2886 -5.05
      vertex 1.94208 3.63337 -4.57
    endloop
  endfacet
  facet normal -0.306147 -0.739103 -0.6
    outer loop
      vertex 2.1126 3.9524 -5.05
      vertex 1.94208 3.63337 -4.57
      vertex 1.30093 4.2886 -5.05
    endloop
  endfacet
  facet normal -0.444455 -0.665176 -0.6
    outer loop
      vertex 2.1126 3.9524 -5.05
      vertex 2.84308 3.46431 -5.05
      vertex 1.94208 3.63337 -4.57
    endloop
  endfacet
  facet normal -0.444456 -0.665174 -0.600002
    outer loop
      vertex 1.94208 3.63337 -4.57
      vertex 2.84308 3.46431 -5.05
      vertex 2.6136 3.18468 -4.57
    endloop
  endfacet
  facet normal -0.565684 -0.565685 -0.600002
    outer loop
      vertex 2.84308 3.46431 -5.05
      vertex 3.18468 2.6136 -4.57
      vertex 2.6136 3.18468 -4.57
    endloop
  endfacet
  facet normal -0.565685 -0.565685 -0.600001
    outer loop
      vertex 3.46431 2.84308 -5.05
      vertex 3.18468 2.6136 -4.57
      vertex 2.84308 3.46431 -5.05
    endloop
  endfacet
  facet normal -0.665175 -0.444456 -0.600001
    outer loop
      vertex 3.46431 2.84308 -5.05
      vertex 3.63337 1.94208 -4.57
      vertex 3.18468 2.6136 -4.57
    endloop
  endfacet
  facet normal -0.665176 -0.444456 -0.6
    outer loop
      vertex 3.9524 2.1126 -5.05
      vertex 3.63337 1.94208 -4.57
      vertex 3.46431 2.84308 -5.05
    endloop
  endfacet
  facet normal -0.739103 -0.306147 -0.6
    outer loop
      vertex 3.9524 2.1126 -5.05
      vertex 3.94244 1.19593 -4.57
      vertex 3.63337 1.94208 -4.57
    endloop
  endfacet
  facet normal -0.739104 -0.306147 -0.6
    outer loop
      vertex 3.9524 2.1126 -5.05
      vertex 4.2886 1.30093 -5.05
      vertex 3.94244 1.19593 -4.57
    endloop
  endfacet
  facet normal -0.784629 -0.156072 -0.6
    outer loop
      vertex 4.2886 1.30093 -5.05
      vertex 4.46 0.439272 -5.05
      vertex 3.94244 1.19593 -4.57
    endloop
  endfacet
  facet normal -0.784628 -0.156072 -0.6
    outer loop
      vertex 4.46 0.439272 -5.05
      vertex 4.1 0.403815 -4.57
      vertex 3.94244 1.19593 -4.57
    endloop
  endfacet
  facet normal -0.8 0 -0.6
    outer loop
      vertex 4.46 0.439272 -5.05
      vertex 4.46 -0.439272 -5.05
      vertex 4.1 0.403815 -4.57
    endloop
  endfacet
  facet normal -0.8 0 -0.6
    outer loop
      vertex 4.1 0.403815 -4.57
      vertex 4.46 -0.439272 -5.05
      vertex 4.1 -0.403815 -4.57
    endloop
  endfacet
  facet normal -0.784628 0.156072 -0.6
    outer loop
      vertex 4.46 -0.439272 -5.05
      vertex 4.2886 -1.30093 -5.05
      vertex 4.1 -0.403815 -4.57
    endloop
  endfacet
  facet normal -0.784628 0.156072 -0.600001
    outer loop
      vertex 4.1 -0.403815 -4.57
      vertex 4.2886 -1.30093 -5.05
      vertex 3.94244 -1.19593 -4.57
    endloop
  endfacet
  facet normal -0.739103 0.306146 -0.600001
    outer loop
      vertex 3.94244 -1.19593 -4.57
      vertex 4.2886 -1.30093 -5.05
      vertex 3.63337 -1.94208 -4.57
    endloop
  endfacet
  facet normal -0.739103 0.306147 -0.6
    outer loop
      vertex 4.2886 -1.30093 -5.05
      vertex 3.9524 -2.1126 -5.05
      vertex 3.63337 -1.94208 -4.57
    endloop
  endfacet
  facet normal -0.665176 0.444455 -0.6
    outer loop
      vertex 3.63337 -1.94208 -4.57
      vertex 3.9524 -2.1126 -5.05
      vertex 3.46431 -2.84308 -5.05
    endloop
  endfacet
  facet normal -0.665174 0.444456 -0.600002
    outer loop
      vertex 3.63337 -1.94208 -4.57
      vertex 3.46431 -2.84308 -5.05
      vertex 3.18468 -2.6136 -4.57
    endloop
  endfacet
  facet normal -0.565685 0.565684 -0.600002
    outer loop
      vertex 3.18468 -2.6136 -4.57
      vertex 3.46431 -2.84308 -5.05
      vertex 2.6136 -3.18468 -4.57
    endloop
  endfacet
  facet normal -0.565685 0.565685 -0.600001
    outer loop
      vertex 3.46431 -2.84308 -5.05
      vertex 2.84308 -3.46431 -5.05
      vertex 2.6136 -3.18468 -4.57
    endloop
  endfacet
  facet normal -0.444456 0.665175 -0.600001
    outer loop
      vertex 2.6136 -3.18468 -4.57
      vertex 2.84308 -3.46431 -5.05
      vertex 1.94208 -3.63337 -4.57
    endloop
  endfacet
  facet normal -0.444456 0.665176 -0.6
    outer loop
      vertex 2.84308 -3.46431 -5.05
      vertex 2.1126 -3.9524 -5.05
      vertex 1.94208 -3.63337 -4.57
    endloop
  endfacet
  facet normal -0.306147 0.739103 -0.6
    outer loop
      vertex 1.94208 -3.63337 -4.57
      vertex 2.1126 -3.9524 -5.05
      vertex 1.19593 -3.94244 -4.57
    endloop
  endfacet
  facet normal -0.306147 0.739104 -0.6
    outer loop
      vertex 2.1126 -3.9524 -5.05
      vertex 1.30093 -4.2886 -5.05
      vertex 1.19593 -3.94244 -4.57
    endloop
  endfacet
  facet normal -0.156072 0.784629 -0.6
    outer loop
      vertex 1.19593 -3.94244 -4.57
      vertex 1.30093 -4.2886 -5.05
      vertex 0.439272 -4.46 -5.05
    endloop
  endfacet
  facet normal -0.156072 0.784628 -0.6
    outer loop
      vertex 1.19593 -3.94244 -4.57
      vertex 0.439272 -4.46 -5.05
      vertex 0.403815 -4.1 -4.57
    endloop
  endfacet
  facet normal 0 0.8 -0.6
    outer loop
      vertex 0.403815 -4.1 -4.57
      vertex 0.439272 -4.46 -5.05
      vertex -0.403815 -4.1 -4.57
    endloop
  endfacet
  facet normal 0 0.8 -0.6
    outer loop
      vertex -0.403815 -4.1 -4.57
      vertex 0.439272 -4.46 -5.05
      vertex -0.439272 -4.46 -5.05
    endloop
  endfacet
  facet normal 0.156072 0.784628 -0.6
    outer loop
      vertex -0.403815 -4.1 -4.57
      vertex -0.439272 -4.46 -5.05
      vertex -1.30093 -4.2886 -5.05
    endloop
  endfacet
  facet normal 0.156072 0.784628 -0.600001
    outer loop
      vertex -0.403815 -4.1 -4.57
      vertex -1.30093 -4.2886 -5.05
      vertex -1.19593 -3.94244 -4.57
    endloop
  endfacet
  facet normal 0.306146 0.739103 -0.600001
    outer loop
      vertex -1.19593 -3.94244 -4.57
      vertex -1.30093 -4.2886 -5.05
      vertex -1.94208 -3.63337 -4.57
    endloop
  endfacet
  facet normal 0.306147 0.739103 -0.6
    outer loop
      vertex -1.94208 -3.63337 -4.57
      vertex -1.30093 -4.2886 -5.05
      vertex -2.1126 -3.9524 -5.05
    endloop
  endfacet
  facet normal 0.444455 0.665176 -0.6
    outer loop
      vertex -1.94208 -3.63337 -4.57
      vertex -2.1126 -3.9524 -5.05
      vertex -2.84308 -3.46431 -5.05
    endloop
  endfacet
  facet normal 0.444456 0.665174 -0.600002
    outer loop
      vertex -1.94208 -3.63337 -4.57
      vertex -2.84308 -3.46431 -5.05
      vertex -2.6136 -3.18468 -4.57
    endloop
  endfacet
  facet normal 0.565684 0.565685 -0.600002
    outer loop
      vertex -2.6136 -3.18468 -4.57
      vertex -2.84308 -3.46431 -5.05
      vertex -3.18468 -2.6136 -4.57
    endloop
  endfacet
  facet normal 0.565685 0.565685 -0.600001
    outer loop
      vertex -3.18468 -2.6136 -4.57
      vertex -2.84308 -3.46431 -5.05
      vertex -3.46431 -2.84308 -5.05
    endloop
  endfacet
  facet normal 0.665175 0.444456 -0.600001
    outer loop
      vertex -3.63337 -1.94208 -4.57
      vertex -3.18468 -2.6136 -4.57
      vertex -3.46431 -2.84308 -5.05
    endloop
  endfacet
  facet normal 0.665176 0.444456 -0.6
    outer loop
      vertex -3.63337 -1.94208 -4.57
      vertex -3.46431 -2.84308 -5.05
      vertex -3.9524 -2.1126 -5.05
    endloop
  endfacet
  facet normal 0.739103 0.306147 -0.6
    outer loop
      vertex -3.94244 -1.19593 -4.57
      vertex -3.63337 -1.94208 -4.57
      vertex -3.9524 -2.1126 -5.05
    endloop
  endfacet
  facet normal 0.739104 0.306147 -0.6
    outer loop
      vertex -3.94244 -1.19593 -4.57
      vertex -3.9524 -2.1126 -5.05
      vertex -4.2886 -1.30093 -5.05
    endloop
  endfacet
  facet normal 0.784629 0.156072 -0.6
    outer loop
      vertex -3.94244 -1.19593 -4.57
      vertex -4.2886 -1.30093 -5.05
      vertex -4.46 -0.439272 -5.05
    endloop
  endfacet
  facet normal 0.784628 0.156072 -0.6
    outer loop
      vertex -4.1 -0.403815 -4.57
      vertex -3.94244 -1.19593 -4.57
      vertex -4.46 -0.439272 -5.05
    endloop
  endfacet
  facet normal 0.8 0 -0.6
    outer loop
      vertex -4.46 0.439272 -5.05
      vertex -4.1 0.403815 -4.57
      vertex -4.1 -0.403815 -4.57
    endloop
  endfacet
  facet normal 0.8 0 -0.6
    outer loop
      vertex -4.46 -0.439272 -5.05
      vertex -4.46 0.439272 -5.05
      vertex -4.1 -0.403815 -4.57
    endloop
  endfacet
  facet normal 0.784628 -0.156072 -0.6
    outer loop
      vertex -4.2886 1.30093 -5.05
      vertex -4.1 0.403815 -4.57
      vertex -4.46 0.439272 -5.05
    endloop
  endfacet
  facet normal 0.784628 -0.156072 -0.600001
    outer loop
      vertex -4.2886 1.30093 -5.05
      vertex -4.1 1.24372 -4.78848
      vertex -4.1 0.403815 -4.57
    endloop
  endfacet
  facet normal 0.739103 -0.306146 -0.600001
    outer loop
      vertex -4.2886 1.30093 -5.05
      vertex -4.1 1.48548 -4.91183
      vertex -4.1 1.24372 -4.78848
    endloop
  endfacet
  facet normal 0.739103 -0.306147 -0.6
    outer loop
      vertex -4.1 1.75627 -5.05
      vertex -4.1 1.48548 -4.91183
      vertex -4.2886 1.30093 -5.05
    endloop
  endfacet
  facet normal 1 0 0
    outer loop
      vertex -4.1 20.45 -5.05
      vertex -4.1 1.24372 -4.78848
      vertex -4.1 1.48548 -4.91183
    endloop
  endfacet
  facet normal 1 0 0
    outer loop
      vertex -4.1 0.403815 -4.57
      vertex -4.1 1.24372 -4.78848
      vertex -4.1 20.45 -5.05
    endloop
  endfacet
  facet normal 1 0 0
    outer loop
      vertex -4.1 1.75627 -5.05
      vertex -4.1 20.45 -5.05
      vertex -4.1 1.48548 -4.91183
    endloop
  endfacet
  facet normal 1 0 0
    outer loop
      vertex -4.1 12.0051 -1.55
      vertex -4.1 11.1102 7.16689e-08
      vertex -4.1 0.403815 -4.57
    endloop
  endfacet
  facet normal 1 0 0
    outer loop
      vertex -4.1 12.0051 1.55
      vertex -4.1 -0.403815 5.05
      vertex -4.1 0.403815 -4.57
    endloop
  endfacet
  facet normal 1 0 0
    outer loop
      vertex -4.1 -0.403815 5.05
      vertex -4.1 -0.403815 -4.57
      vertex -4.1 0.403815 -4.57
    endloop
  endfacet
  facet normal 1 0 0
    outer loop
      vertex -4.1 20.45 5.05
      vertex -4.1 -0.403815 5.05
      vertex -4.1 12.0051 1.55
    endloop
  endfacet
  facet normal 1 0 0
    outer loop
      vertex -4.1 20.45 -5.05
      vertex -4.1 20.45 5.05
      vertex -4.1 13.7949 1.55
    endloop
  endfacet
  facet normal 1 0 0
    outer loop
      vertex -4.1 20.45 -5.05
      vertex -4.1 13.7949 1.55
      vertex -4.1 14.6898 -7.16689e-08
    endloop
  endfacet
  facet normal 1 0 0
    outer loop
      vertex -4.1 20.45 -5.05
      vertex -4.1 13.7949 -1.55
      vertex -4.1 0.403815 -4.57
    endloop
  endfacet
  facet normal 1 0 0
    outer loop
      vertex -4.1 20.45 -5.05
      vertex -4.1 14.6898 -7.16689e-08
      vertex -4.1 13.7949 -1.55
    endloop
  endfacet
  facet normal 1 0 0
    outer loop
      vertex -4.1 13.7949 -1.55
      vertex -4.1 12.0051 -1.55
      vertex -4.1 0.403815 -4.57
    endloop
  endfacet
  facet normal 1 0 0
    outer loop
      vertex -4.1 12.0051 1.55
      vertex -4.1 13.7949 1.55
      vertex -4.1 20.45 5.05
    endloop
  endfacet
  facet normal 1 0 0
    outer loop
      vertex -4.1 11.1102 7.16689e-08
      vertex -4.1 12.0051 1.55
      vertex -4.1 0.403815 -4.57
    endloop
  endfacet
  facet normal 0 -1 0
    outer loop
      vertex 7.1 20.45 -5.05
      vertex 7.1 20.45 5.05
      vertex -4.1 20.45 5.05
    endloop
  endfacet
  facet normal 0 -1 0
    outer loop
      vertex -4.1 20.45 -5.05
      vertex 7.1 20.45 -5.05
      vertex -4.1 20.45 5.05
    endloop
  endfacet
  facet normal 1 0 0
    outer loop
      vertex 7.1 20.45 5.05
      vertex 7.1 20.45 -5.05
      vertex 7.1 28.515 -5.05
    endloop
  endfacet
  facet normal 1 0 0
    outer loop
      vertex 7.1 28.875 5.05
      vertex 7.1 20.45 5.05
      vertex 7.1 28.875 -4.57
    endloop
  endfacet
  facet normal 1 0 0
    outer loop
      vertex 7.1 28.875 -4.57
      vertex 7.1 20.45 5.05
      vertex 7.1 28.515 -5.05
    endloop
  endfacet
  facet normal 0 0.8 -0.6
    outer loop
      vertex 7.1 28.875 -4.57
      vertex 7.1 28.515 -5.05
      vertex -7.1 28.875 -4.57
    endloop
  endfacet
  facet normal 0 0.8 -0.6
    outer loop
      vertex -7.1 28.875 -4.57
      vertex 7.1 28.515 -5.05
      vertex -7.46 28.515 -5.05
    endloop
  endfacet
  facet normal 0.8 0 -0.6
    outer loop
      vertex -7.46 35.485 -5.05
      vertex -7.1 35.125 -4.57
      vertex -7.1 28.875 -4.57
    endloop
  endfacet
  facet normal 0.8 0 -0.6
    outer loop
      vertex -7.46 28.515 -5.05
      vertex -7.46 35.485 -5.05
      vertex -7.1 28.875 -4.57
    endloop
  endfacet
  facet normal 0 -0.8 -0.6
    outer loop
      vertex 7.1 35.485 -5.05
      vertex 7.1 35.125 -4.57
      vertex -7.1 35.125 -4.57
    endloop
  endfacet
  facet normal 0 -0.8 -0.6
    outer loop
      vertex -7.46 35.485 -5.05
      vertex 7.1 35.485 -5.05
      vertex -7.1 35.125 -4.57
    endloop
  endfacet
  facet normal 1 0 0
    outer loop
      vertex 7.1 35.125 5.05
      vertex 7.1 35.125 -4.57
      vertex 7.1 35.485 -5.05
    endloop
  endfacet
  facet normal 1 0 0
    outer loop
      vertex 7.1 38.1 5.05
      vertex 7.1 35.125 5.05
      vertex 7.1 38.1 -5.05
    endloop
  endfacet
  facet normal 1 0 0
    outer loop
      vertex 7.1 38.1 -5.05
      vertex 7.1 35.125 5.05
      vertex 7.1 35.485 -5.05
    endloop
  endfacet
  facet normal 0 0 1
    outer loop
      vertex -18.9375 7.7 3.775
      vertex -18.9375 4.7 3.775
      vertex -18.05 2.55 3.775
    endloop
  endfacet
  facet normal 0 0 1
    outer loop
      vertex -18.05 2.55 3.775
      vertex -18.9375 4.7 3.775
      vertex -18.9978 4.7 3.775
    endloop
  endfacet
  facet normal 0 0 1
    outer loop
      vertex -18.9375 7.7 3.775
      vertex -18.05 2.55 3.775
      vertex -13.95 2.55 3.775
    endloop
  endfacet
  facet normal 0 0 1
    outer loop
      vertex -13.0625 4.7 3.775
      vertex -13.95 2.55 3.775
      vertex -13.0022 4.7 3.775
    endloop
  endfacet
  facet normal 0 0 1
    outer loop
      vertex -18.9375 7.7 3.775
      vertex -13.95 2.55 3.775
      vertex -13.0625 4.7 3.775
    endloop
  endfacet
  facet normal 0 0 1
    outer loop
      vertex -18.9375 7.7 3.775
      vertex -13.0625 7.7 3.775
      vertex -12.925 32.6951 3.775
    endloop
  endfacet
  facet normal 0 0 1
    outer loop
      vertex -13.0625 7.7 3.775
      vertex -12.925 7.7 3.775
      vertex -12.925 32.6951 3.775
    endloop
  endfacet
  facet normal 0 0 1
    outer loop
      vertex -18.9375 7.7 3.775
      vertex -12.925 32.6951 3.775
      vertex -19.075 20.9287 3.775
    endloop
  endfacet
  facet normal 0 0 1
    outer loop
      vertex -13.0625 4.7 3.775
      vertex -13.0625 7.7 3.775
      vertex -18.9375 7.7 3.775
    endloop
  endfacet
  facet normal 0 0 1
    outer loop
      vertex -19.075 7.7 3.775
      vertex -18.9375 7.7 3.775
      vertex -19.075 20.9287 3.775
    endloop
  endfacet
  facet normal -1 0 0
    outer loop
      vertex -12.925 9.21427 5.0371
      vertex -12.925 32.6951 5.0371
      vertex -12.925 7.7 5.03605
    endloop
  endfacet
  facet normal -1 0 0
    outer loop
      vertex -12.925 7.7 5.03605
      vertex -12.925 32.6951 5.0371
      vertex -12.925 32.6951 3.775
    endloop
  endfacet
  facet normal -1 0 0
    outer loop
      vertex -12.925 7.7 5.03605
      vertex -12.925 32.6951 3.775
      vertex -12.925 7.7 3.775
    endloop
  endfacet
  facet normal -0.915025 0.403398 0
    outer loop
      vertex -13.95 2.55 5.02901
      vertex -13.0022 4.7 5.03372
      vertex -13.95 2.55 4.81
    endloop
  endfacet
  facet normal -0.915025 0.403398 0
    outer loop
      vertex -13.95 2.55 4.81
      vertex -13.0022 4.7 5.03372
      vertex -13.0022 4.7 3.775
    endloop
  endfacet
  facet normal -0.915025 0.403398 0
    outer loop
      vertex -13.95 2.55 4.81
      vertex -13.0022 4.7 3.775
      vertex -13.95 2.55 3.775
    endloop
  endfacet
  facet normal -0.00456616 0 0.99999
    outer loop
      vertex -12.925 32.6951 5.0371
      vertex -12.925 9.21427 5.0371
      vertex -10.1 14 5.05
    endloop
  endfacet
  facet normal -0.00456616 0 0.99999
    outer loop
      vertex -10.1 38.1 5.05
      vertex -12.925 32.6951 5.0371
      vertex -10.1 14 5.05
    endloop
  endfacet
  facet normal 1 0 0
    outer loop
      vertex -19.075 20.9287 3.775
      vertex -19.075 20.9287 5.00902
      vertex -19.075 7.7 5.00902
    endloop
  endfacet
  facet normal 1 0 0
    outer loop
      vertex -19.075 7.7 3.775
      vertex -19.075 20.9287 3.775
      vertex -19.075 7.7 5.00902
    endloop
  endfacet
  facet normal -0.00456616 0 0.99999
    outer loop
      vertex -21.05 17.15 5
      vertex -21.05 7.7 5
      vertex -19.075 7.7 5.00902
    endloop
  endfacet
  facet normal -0.00456616 0 0.99999
    outer loop
      vertex -19.075 20.9287 5.00902
      vertex -21.05 17.15 5
      vertex -19.075 7.7 5.00902
    endloop
  endfacet
  facet normal 2.22045e-16 -6.59649e-08 -1
    outer loop
      vertex -15.55 14.5166 2.8
      vertex -15.55 11.2834 2.8
      vertex -21.05 14.5166 2.8
    endloop
  endfacet
  facet normal 2.22045e-16 -6.59649e-08 -1
    outer loop
      vertex -21.05 14.5166 2.8
      vertex -15.55 11.2834 2.8
      vertex -21.05 11.2834 2.8
    endloop
  endfacet
  facet normal 1.11022e-16 0.866025 -0.5
    outer loop
      vertex -15.55 11.2834 2.8
      vertex -15.55 9.66684 2.13275e-07
      vertex -21.05 11.2834 2.8
    endloop
  endfacet
  facet normal 1.11022e-16 0.866025 -0.5
    outer loop
      vertex -21.05 11.2834 2.8
      vertex -15.55 9.66684 2.13275e-07
      vertex -21.05 9.66684 2.13275e-07
    endloop
  endfacet
  facet normal 1.11022e-16 -0.866025 -0.5
    outer loop
      vertex -21.05 16.1332 -2.13275e-07
      vertex -15.55 16.1332 -2.13275e-07
      vertex -15.55 14.5166 2.8
    endloop
  endfacet
  facet normal 1.11022e-16 -0.866025 -0.5
    outer loop
      vertex -21.05 14.5166 2.8
      vertex -21.05 16.1332 -2.13275e-07
      vertex -15.55 14.5166 2.8
    endloop
  endfacet
  facet normal -1.11022e-16 -0.866025 0.5
    outer loop
      vertex -15.55 14.5166 -2.8
      vertex -15.55 16.1332 -2.13275e-07
      vertex -21.05 16.1332 -2.13275e-07
    endloop
  endfacet
  facet normal -1.11022e-16 -0.866025 0.5
    outer loop
      vertex -21.05 14.5166 -2.8
      vertex -15.55 14.5166 -2.8
      vertex -21.05 16.1332 -2.13275e-07
    endloop
  endfacet
  facet normal -2.22045e-16 6.59649e-08 1
    outer loop
      vertex -15.55 11.2834 -2.8
      vertex -15.55 14.5166 -2.8
      vertex -21.05 14.5166 -2.8
    endloop
  endfacet
  facet normal -2.22045e-16 6.59649e-08 1
    outer loop
      vertex -21.05 11.2834 -2.8
      vertex -15.55 11.2834 -2.8
      vertex -21.05 14.5166 -2.8
    endloop
  endfacet
  facet normal -1.11022e-16 0.866025 0.5
    outer loop
      vertex -15.55 11.2834 -2.8
      vertex -21.05 11.2834 -2.8
      vertex -15.55 9.66684 2.13275e-07
    endloop
  endfacet
  facet normal -1.11022e-16 0.866025 0.5
    outer loop
      vertex -15.55 9.66684 2.13275e-07
      vertex -21.05 11.2834 -2.8
      vertex -21.05 9.66684 2.13275e-07
    endloop
  endfacet
  facet normal 0.915025 0.403398 0
    outer loop
      vertex -18.9978 4.7 5.00937
      vertex -18.05 2.55 5.0137
      vertex -18.05 2.55 4.81
    endloop
  endfacet
  facet normal 0.915025 0.403398 0
    outer loop
      vertex -18.9978 4.7 3.775
      vertex -18.9978 4.7 5.00937
      vertex -18.05 2.55 3.775
    endloop
  endfacet
  facet normal 0.915025 0.403398 0
    outer loop
      vertex -18.05 2.55 3.775
      vertex -18.9978 4.7 5.00937
      vertex -18.05 2.55 4.81
    endloop
  endfacet
  facet normal 1 0 0
    outer loop
      vertex -18.05 2.55 5.0137
      vertex -18.05 1.55 4.81
      vertex -18.05 2.55 4.81
    endloop
  endfacet
  facet normal 1 0 0
    outer loop
      vertex -18.05 0.532192 5.0137
      vertex -18.05 1.55 4.81
      vertex -18.05 2.55 5.0137
    endloop
  endfacet
  facet normal 1 0 0
    outer loop
      vertex -18.05 1.55 4.2
      vertex -18.05 1.55 4.81
      vertex -18.05 0.532192 5.0137
    endloop
  endfacet
  facet normal 1 0 0
    outer loop
      vertex -18.05 -1.55 5.01226
      vertex -18.05 1.55 4.2
      vertex -18.05 0.532192 5.0137
    endloop
  endfacet
  facet normal 1 0 0
    outer loop
      vertex -18.05 -1.55 4.2
      vertex -18.05 1.55 4.2
      vertex -18.05 -1.55 5.01226
    endloop
  endfacet
  facet normal 0 1 0
    outer loop
      vertex -13.95 -1.55 5.02618
      vertex -13.95 -1.55 4.2
      vertex -18.05 -1.55 5.01226
    endloop
  endfacet
  facet normal 0 1 0
    outer loop
      vertex -18.05 -1.55 5.01226
      vertex -13.95 -1.55 4.2
      vertex -18.05 -1.55 4.2
    endloop
  endfacet
  facet normal -1 0 0
    outer loop
      vertex -13.95 2.55 5.02901
      vertex -13.95 2.55 4.81
      vertex -13.95 -1.55 5.02618
    endloop
  endfacet
  facet normal -1 0 0
    outer loop
      vertex -13.95 -1.55 5.02618
      vertex -13.95 2.55 4.81
      vertex -13.95 1.55 4.81
    endloop
  endfacet
  facet normal -1 0 0
    outer loop
      vertex -13.95 -1.55 5.02618
      vertex -13.95 1.55 4.81
      vertex -13.95 1.55 4.2
    endloop
  endfacet
  facet normal -1 0 0
    outer loop
      vertex -13.95 -1.55 5.02618
      vertex -13.95 1.55 4.2
      vertex -13.95 -1.55 4.2
    endloop
  endfacet
  facet normal 0 -1 0
    outer loop
      vertex 7.1 35.125 -4.57
      vertex 7.1 35.125 5.05
      vertex -7.1 35.125 5.05
    endloop
  endfacet
  facet normal 0 -1 0
    outer loop
      vertex -7.1 35.125 -4.57
      vertex 7.1 35.125 -4.57
      vertex -7.1 35.125 5.05
    endloop
  endfacet
  facet normal 1 0 0
    outer loop
      vertex -7.1 35.125 -4.57
      vertex -7.1 35.125 5.05
      vertex -7.1 28.875 5.05
    endloop
  endfacet
  facet normal 1 0 0
    outer loop
      vertex -7.1 28.875 -4.57
      vertex -7.1 35.125 -4.57
      vertex -7.1 28.875 5.05
    endloop
  endfacet
  facet normal 0 1 0
    outer loop
      vertex 7.1 28.875 5.05
      vertex 7.1 28.875 -4.57
      vertex -7.1 28.875 5.05
    endloop
  endfacet
  facet normal 0 1 0
    outer loop
      vertex -7.1 28.875 5.05
      vertex 7.1 28.875 -4.57
      vertex -7.1 28.875 -4.57
    endloop
  endfacet
  facet normal 0.980785 0.19509 0
    outer loop
      vertex -4.1 -0.403815 5.05
      vertex -3.94244 -1.19593 5.05
      vertex -3.94244 -1.19593 -4.57
    endloop
  endfacet
  facet normal 0.980785 0.19509 0
    outer loop
      vertex -4.1 -0.403815 -4.57
      vertex -4.1 -0.403815 5.05
      vertex -3.94244 -1.19593 -4.57
    endloop
  endfacet
  facet normal 0.923879 0.382684 0
    outer loop
      vertex -3.94244 -1.19593 5.05
      vertex -3.63337 -1.94208 5.05
      vertex -3.63337 -1.94208 -4.57
    endloop
  endfacet
  facet normal 0.923879 0.382684 0
    outer loop
      vertex -3.94244 -1.19593 -4.57
      vertex -3.94244 -1.19593 5.05
      vertex -3.63337 -1.94208 -4.57
    endloop
  endfacet
  facet normal 0.831469 0.555571 0
    outer loop
      vertex -3.63337 -1.94208 5.05
      vertex -3.18468 -2.6136 5.05
      vertex -3.18468 -2.6136 -4.57
    endloop
  endfacet
  facet normal 0.831469 0.555571 0
    outer loop
      vertex -3.63337 -1.94208 -4.57
      vertex -3.63337 -1.94208 5.05
      vertex -3.18468 -2.6136 -4.57
    endloop
  endfacet
  facet normal 0.707106 0.707107 0
    outer loop
      vertex -2.6136 -3.18468 5.05
      vertex -2.6136 -3.18468 -4.57
      vertex -3.18468 -2.6136 5.05
    endloop
  endfacet
  facet normal 0.707106 0.707107 0
    outer loop
      vertex -3.18468 -2.6136 5.05
      vertex -2.6136 -3.18468 -4.57
      vertex -3.18468 -2.6136 -4.57
    endloop
  endfacet
  facet normal 0.555571 0.831469 0
    outer loop
      vertex -1.94208 -3.63337 5.05
      vertex -1.94208 -3.63337 -4.57
      vertex -2.6136 -3.18468 5.05
    endloop
  endfacet
  facet normal 0.555571 0.831469 0
    outer loop
      vertex -2.6136 -3.18468 5.05
      vertex -1.94208 -3.63337 -4.57
      vertex -2.6136 -3.18468 -4.57
    endloop
  endfacet
  facet normal 0.382683 0.92388 0
    outer loop
      vertex -1.19593 -3.94244 5.05
      vertex -1.19593 -3.94244 -4.57
      vertex -1.94208 -3.63337 5.05
    endloop
  endfacet
  facet normal 0.382683 0.92388 0
    outer loop
      vertex -1.94208 -3.63337 5.05
      vertex -1.19593 -3.94244 -4.57
      vertex -1.94208 -3.63337 -4.57
    endloop
  endfacet
  facet normal 0.195091 0.980785 0
    outer loop
      vertex -0.403815 -4.1 5.05
      vertex -0.403815 -4.1 -4.57
      vertex -1.19593 -3.94244 5.05
    endloop
  endfacet
  facet normal 0.195091 0.980785 0
    outer loop
      vertex -1.19593 -3.94244 5.05
      vertex -0.403815 -4.1 -4.57
      vertex -1.19593 -3.94244 -4.57
    endloop
  endfacet
  facet normal 0 1 0
    outer loop
      vertex 0.403815 -4.1 5.05
      vertex 0.403815 -4.1 -4.57
      vertex -0.403815 -4.1 5.05
    endloop
  endfacet
  facet normal 0 1 0
    outer loop
      vertex -0.403815 -4.1 5.05
      vertex 0.403815 -4.1 -4.57
      vertex -0.403815 -4.1 -4.57
    endloop
  endfacet
  facet normal -0.19509 0.980785 0
    outer loop
      vertex 1.19593 -3.94244 5.05
      vertex 1.19593 -3.94244 -4.57
      vertex 0.403815 -4.1 5.05
    endloop
  endfacet
  facet normal -0.19509 0.980785 0
    outer loop
      vertex 0.403815 -4.1 5.05
      vertex 1.19593 -3.94244 -4.57
      vertex 0.403815 -4.1 -4.57
    endloop
  endfacet
  facet normal -0.382684 0.923879 0
    outer loop
      vertex 1.94208 -3.63337 5.05
      vertex 1.94208 -3.63337 -4.57
      vertex 1.19593 -3.94244 5.05
    endloop
  endfacet
  facet normal -0.382684 0.923879 0
    outer loop
      vertex 1.19593 -3.94244 5.05
      vertex 1.94208 -3.63337 -4.57
      vertex 1.19593 -3.94244 -4.57
    endloop
  endfacet
  facet normal -0.555571 0.831469 0
    outer loop
      vertex 2.6136 -3.18468 5.05
      vertex 2.6136 -3.18468 -4.57
      vertex 1.94208 -3.63337 5.05
    endloop
  endfacet
  facet normal -0.555571 0.831469 0
    outer loop
      vertex 1.94208 -3.63337 5.05
      vertex 2.6136 -3.18468 -4.57
      vertex 1.94208 -3.63337 -4.57
    endloop
  endfacet
  facet normal -0.707107 0.707106 0
    outer loop
      vertex 3.18468 -2.6136 5.05
      vertex 3.18468 -2.6136 -4.57
      vertex 2.6136 -3.18468 5.05
    endloop
  endfacet
  facet normal -0.707107 0.707106 0
    outer loop
      vertex 2.6136 -3.18468 5.05
      vertex 3.18468 -2.6136 -4.57
      vertex 2.6136 -3.18468 -4.57
    endloop
  endfacet
  facet normal -0.831469 0.555571 0
    outer loop
      vertex 3.63337 -1.94208 5.05
      vertex 3.63337 -1.94208 -4.57
      vertex 3.18468 -2.6136 5.05
    endloop
  endfacet
  facet normal -0.831469 0.555571 0
    outer loop
      vertex 3.18468 -2.6136 5.05
      vertex 3.63337 -1.94208 -4.57
      vertex 3.18468 -2.6136 -4.57
    endloop
  endfacet
  facet normal -0.92388 0.382683 0
    outer loop
      vertex 3.94244 -1.19593 5.05
      vertex 3.94244 -1.19593 -4.57
      vertex 3.63337 -1.94208 5.05
    endloop
  endfacet
  facet normal -0.92388 0.382683 0
    outer loop
      vertex 3.63337 -1.94208 5.05
      vertex 3.94244 -1.19593 -4.57
      vertex 3.63337 -1.94208 -4.57
    endloop
  endfacet
  facet normal -0.980785 0.195091 0
    outer loop
      vertex 4.1 -0.403815 5.05
      vertex 4.1 -0.403815 -4.57
      vertex 3.94244 -1.19593 5.05
    endloop
  endfacet
  facet normal -0.980785 0.195091 0
    outer loop
      vertex 3.94244 -1.19593 5.05
      vertex 4.1 -0.403815 -4.57
      vertex 3.94244 -1.19593 -4.57
    endloop
  endfacet
  facet normal -1 0 0
    outer loop
      vertex 4.1 0.403815 5.05
      vertex 4.1 0.403815 -4.57
      vertex 4.1 -0.403815 5.05
    endloop
  endfacet
  facet normal -1 0 0
    outer loop
      vertex 4.1 -0.403815 5.05
      vertex 4.1 0.403815 -4.57
      vertex 4.1 -0.403815 -4.57
    endloop
  endfacet
  facet normal -0.980785 -0.19509 0
    outer loop
      vertex 4.1 0.403815 5.05
      vertex 3.94244 1.19593 5.05
      vertex 4.1 0.403815 -4.57
    endloop
  endfacet
  facet normal -0.980785 -0.19509 0
    outer loop
      vertex 4.1 0.403815 -4.57
      vertex 3.94244 1.19593 5.05
      vertex 3.94244 1.19593 -4.57
    endloop
  endfacet
  facet normal -0.923879 -0.382684 0
    outer loop
      vertex 3.94244 1.19593 5.05
      vertex 3.63337 1.94208 5.05
      vertex 3.94244 1.19593 -4.57
    endloop
  endfacet
  facet normal -0.923879 -0.382684 0
    outer loop
      vertex 3.94244 1.19593 -4.57
      vertex 3.63337 1.94208 5.05
      vertex 3.63337 1.94208 -4.57
    endloop
  endfacet
  facet normal -0.831469 -0.555571 0
    outer loop
      vertex 3.63337 1.94208 5.05
      vertex 3.18468 2.6136 5.05
      vertex 3.63337 1.94208 -4.57
    endloop
  endfacet
  facet normal -0.831469 -0.555571 0
    outer loop
      vertex 3.63337 1.94208 -4.57
      vertex 3.18468 2.6136 5.05
      vertex 3.18468 2.6136 -4.57
    endloop
  endfacet
  facet normal -0.707106 -0.707107 0
    outer loop
      vertex 3.18468 2.6136 -4.57
      vertex 3.18468 2.6136 5.05
      vertex 2.6136 3.18468 5.05
    endloop
  endfacet
  facet normal -0.707106 -0.707107 0
    outer loop
      vertex 2.6136 3.18468 -4.57
      vertex 3.18468 2.6136 -4.57
      vertex 2.6136 3.18468 5.05
    endloop
  endfacet
  facet normal -0.555571 -0.831469 0
    outer loop
      vertex 2.6136 3.18468 -4.57
      vertex 2.6136 3.18468 5.05
      vertex 1.94208 3.63337 5.05
    endloop
  endfacet
  facet normal -0.555571 -0.831469 0
    outer loop
      vertex 1.94208 3.63337 -4.57
      vertex 2.6136 3.18468 -4.57
      vertex 1.94208 3.63337 5.05
    endloop
  endfacet
  facet normal 1.11022e-16 0.866025 -0.5
    outer loop
      vertex 7.1 9.66684 2.13275e-07
      vertex 1.6 9.66684 2.13275e-07
      vertex 7.1 11.2834 2.8
    endloop
  endfacet
  facet normal 1.11022e-16 0.866025 -0.5
    outer loop
      vertex 7.1 11.2834 2.8
      vertex 1.6 9.66684 2.13275e-07
      vertex 1.6 11.2834 2.8
    endloop
  endfacet
  facet normal -1.11022e-16 0.866025 0.5
    outer loop
      vertex 7.1 11.2834 -2.8
      vertex 1.6 11.2834 -2.8
      vertex 7.1 9.66684 2.13275e-07
    endloop
  endfacet
  facet normal -1.11022e-16 0.866025 0.5
    outer loop
      vertex 7.1 9.66684 2.13275e-07
      vertex 1.6 11.2834 -2.8
      vertex 1.6 9.66684 2.13275e-07
    endloop
  endfacet
  facet normal -2.22045e-16 6.59649e-08 1
    outer loop
      vertex 7.1 11.2834 -2.8
      vertex 7.1 14.5166 -2.8
      vertex 1.6 14.5166 -2.8
    endloop
  endfacet
  facet normal -2.22045e-16 6.59649e-08 1
    outer loop
      vertex 1.6 11.2834 -2.8
      vertex 7.1 11.2834 -2.8
      vertex 1.6 14.5166 -2.8
    endloop
  endfacet
  facet normal -1.11022e-16 -0.866025 0.5
    outer loop
      vertex 1.6 14.5166 -2.8
      vertex 7.1 14.5166 -2.8
      vertex 7.1 16.1332 -2.13275e-07
    endloop
  endfacet
  facet normal -1.11022e-16 -0.866025 0.5
    outer loop
      vertex 1.6 16.1332 -2.13275e-07
      vertex 1.6 14.5166 -2.8
      vertex 7.1 16.1332 -2.13275e-07
    endloop
  endfacet
  facet normal 1.11022e-16 -0.866025 -0.5
    outer loop
      vertex 1.6 16.1332 -2.13275e-07
      vertex 7.1 16.1332 -2.13275e-07
      vertex 7.1 14.5166 2.8
    endloop
  endfacet
  facet normal 1.11022e-16 -0.866025 -0.5
    outer loop
      vertex 1.6 14.5166 2.8
      vertex 1.6 16.1332 -2.13275e-07
      vertex 7.1 14.5166 2.8
    endloop
  endfacet
  facet normal 2.22045e-16 -6.59649e-08 -1
    outer loop
      vertex 7.1 14.5166 2.8
      vertex 7.1 11.2834 2.8
      vertex 1.6 14.5166 2.8
    endloop
  endfacet
  facet normal 2.22045e-16 -6.59649e-08 -1
    outer loop
      vertex 1.6 14.5166 2.8
      vertex 7.1 11.2834 2.8
      vertex 1.6 11.2834 2.8
    endloop
  endfacet
  facet normal -1.11022e-16 0.866025 0.5
    outer loop
      vertex 1.6 12.0051 -1.55
      vertex -2.1 12.0051 -1.55
      vertex 1.6 11.1102 7.16689e-08
    endloop
  endfacet
  facet normal -1.11022e-16 0.866025 0.5
    outer loop
      vertex 1.6 11.1102 7.16689e-08
      vertex -2.1 12.0051 -1.55
      vertex -2.1 11.1102 7.16689e-08
    endloop
  endfacet
  facet normal 1.11022e-16 0.866025 -0.5
    outer loop
      vertex 1.6 12.0051 1.55
      vertex 1.6 11.1102 7.16689e-08
      vertex -2.1 12.0051 1.55
    endloop
  endfacet
  facet normal 1.11022e-16 0.866025 -0.5
    outer loop
      vertex -2.1 12.0051 1.55
      vertex 1.6 11.1102 7.16689e-08
      vertex -2.1 11.1102 7.16689e-08
    endloop
  endfacet
  facet normal 2.22045e-16 -4.00433e-08 -1
    outer loop
      vertex 1.6 13.7949 1.55
      vertex 1.6 12.0051 1.55
      vertex -2.1 13.7949 1.55
    endloop
  endfacet
  facet normal 2.22045e-16 -4.00433e-08 -1
    outer loop
      vertex -2.1 13.7949 1.55
      vertex 1.6 12.0051 1.55
      vertex -2.1 12.0051 1.55
    endloop
  endfacet
  facet normal 1.11022e-16 -0.866025 -0.5
    outer loop
      vertex -2.1 14.6898 -7.16689e-08
      vertex 1.6 14.6898 -7.16689e-08
      vertex 1.6 13.7949 1.55
    endloop
  endfacet
  facet normal 1.11022e-16 -0.866025 -0.5
    outer loop
      vertex -2.1 13.7949 1.55
      vertex -2.1 14.6898 -7.16689e-08
      vertex 1.6 13.7949 1.55
    endloop
  endfacet
  facet normal -1.11022e-16 -0.866025 0.5
    outer loop
      vertex 1.6 13.7949 -1.55
      vertex 1.6 14.6898 -7.16689e-08
      vertex -2.1 14.6898 -7.16689e-08
    endloop
  endfacet
  facet normal -1.11022e-16 -0.866025 0.5
    outer loop
      vertex -2.1 13.7949 -1.55
      vertex 1.6 13.7949 -1.55
      vertex -2.1 14.6898 -7.16689e-08
    endloop
  endfacet
  facet normal -2.22045e-16 4.00433e-08 1
    outer loop
      vertex 1.6 12.0051 -1.55
      vertex 1.6 13.7949 -1.55
      vertex -2.1 13.7949 -1.55
    endloop
  endfacet
  facet normal -2.22045e-16 4.00433e-08 1
    outer loop
      vertex -2.1 12.0051 -1.55
      vertex 1.6 12.0051 -1.55
      vertex -2.1 13.7949 -1.55
    endloop
  endfacet
  facet normal 1.11022e-16 0.866025 -0.5
    outer loop
      vertex -4.1 11.1102 7.16689e-08
      vertex -15.55 11.1102 7.16689e-08
      vertex -4.1 12.0051 1.55
    endloop
  endfacet
  facet normal 1.11022e-16 0.866025 -0.5
    outer loop
      vertex -4.1 12.0051 1.55
      vertex -15.55 11.1102 7.16689e-08
      vertex -15.55 12.0051 1.55
    endloop
  endfacet
  facet normal 2.22045e-16 -4.00433e-08 -1
    outer loop
      vertex -4.1 13.7949 1.55
      vertex -4.1 12.0051 1.55
      vertex -15.55 13.7949 1.55
    endloop
  endfacet
  facet normal 2.22045e-16 -4.00433e-08 -1
    outer loop
      vertex -15.55 13.7949 1.55
      vertex -4.1 12.0051 1.55
      vertex -15.55 12.0051 1.55
    endloop
  endfacet
  facet normal -1.11022e-16 0.866025 0.5
    outer loop
      vertex -4.1 12.0051 -1.55
      vertex -15.55 12.0051 -1.55
      vertex -4.1 11.1102 7.16689e-08
    endloop
  endfacet
  facet normal -1.11022e-16 0.866025 0.5
    outer loop
      vertex -4.1 11.1102 7.16689e-08
      vertex -15.55 12.0051 -1.55
      vertex -15.55 11.1102 7.16689e-08
    endloop
  endfacet
  facet normal -2.22045e-16 4.00433e-08 1
    outer loop
      vertex -4.1 12.0051 -1.55
      vertex -4.1 13.7949 -1.55
      vertex -15.55 13.7949 -1.55
    endloop
  endfacet
  facet normal -2.22045e-16 4.00433e-08 1
    outer loop
      vertex -15.55 12.0051 -1.55
      vertex -4.1 12.0051 -1.55
      vertex -15.55 13.7949 -1.55
    endloop
  endfacet
  facet normal -1.11022e-16 -0.866025 0.5
    outer loop
      vertex -15.55 13.7949 -1.55
      vertex -4.1 13.7949 -1.55
      vertex -4.1 14.6898 -7.16689e-08
    endloop
  endfacet
  facet normal -1.11022e-16 -0.866025 0.5
    outer loop
      vertex -15.55 14.6898 -7.16689e-08
      vertex -15.55 13.7949 -1.55
      vertex -4.1 14.6898 -7.16689e-08
    endloop
  endfacet
  facet normal 1.11022e-16 -0.866025 -0.5
    outer loop
      vertex -15.55 14.6898 -7.16689e-08
      vertex -4.1 14.6898 -7.16689e-08
      vertex -4.1 13.7949 1.55
    endloop
  endfacet
  facet normal 1.11022e-16 -0.866025 -0.5
    outer loop
      vertex -15.55 13.7949 1.55
      vertex -15.55 14.6898 -7.16689e-08
      vertex -4.1 13.7949 1.55
    endloop
  endfacet
  facet normal 0 1 0
    outer loop
      vertex -13.95 2.55 4.81
      vertex -13.95 2.55 3.775
      vertex -18.05 2.55 4.81
    endloop
  endfacet
  facet normal 0 1 0
    outer loop
      vertex -18.05 2.55 4.81
      vertex -13.95 2.55 3.775
      vertex -18.05 2.55 3.775
    endloop
  endfacet
  facet normal 0 0 1
    outer loop
      vertex -13.95 1.55 4.81
      vertex -13.95 2.55 4.81
      vertex -18.05 2.55 4.81
    endloop
  endfacet
  facet normal 0 0 1
    outer loop
      vertex -18.05 1.55 4.81
      vertex -13.95 1.55 4.81
      vertex -18.05 2.55 4.81
    endloop
  endfacet
  facet normal -1 0 -2.22045e-16
    outer loop
      vertex -15.55 13.7949 1.55
      vertex -15.55 14.5166 2.8
      vertex -15.55 14.6898 -7.16689e-08
    endloop
  endfacet
  facet normal -1 0 -2.22045e-16
    outer loop
      vertex -15.55 13.7949 -1.55
      vertex -15.55 14.5166 -2.8
      vertex -15.55 11.2834 -2.8
    endloop
  endfacet
  facet normal -1 0 -2.22045e-16
    outer loop
      vertex -15.55 11.1102 7.16689e-08
      vertex -15.55 11.2834 -2.8
      vertex -15.55 9.66684 2.13275e-07
    endloop
  endfacet
  facet normal -1 0 -2.22045e-16
    outer loop
      vertex -15.55 12.0051 1.55
      vertex -15.55 9.66684 2.13275e-07
      vertex -15.55 11.2834 2.8
    endloop
  endfacet
  facet normal -1 0 -2.22045e-16
    outer loop
      vertex -15.55 11.1102 7.16689e-08
      vertex -15.55 9.66684 2.13275e-07
      vertex -15.55 12.0051 1.55
    endloop
  endfacet
  facet normal -1 0 -2.22045e-16
    outer loop
      vertex -15.55 14.5166 2.8
      vertex -15.55 12.0051 1.55
      vertex -15.55 11.2834 2.8
    endloop
  endfacet
  facet normal -1 0 -2.22045e-16
    outer loop
      vertex -15.55 12.0051 -1.55
      vertex -15.55 11.2834 -2.8
      vertex -15.55 11.1102 7.16689e-08
    endloop
  endfacet
  facet normal -1 0 -2.22045e-16
    outer loop
      vertex -15.55 14.6898 -7.16689e-08
      vertex -15.55 14.5166 -2.8
      vertex -15.55 13.7949 -1.55
    endloop
  endfacet
  facet normal -1 0 -2.22045e-16
    outer loop
      vertex -15.55 16.1332 -2.13275e-07
      vertex -15.55 14.5166 -2.8
      vertex -15.55 14.6898 -7.16689e-08
    endloop
  endfacet
  facet normal -1 0 -2.22045e-16
    outer loop
      vertex -15.55 16.1332 -2.13275e-07
      vertex -15.55 14.6898 -7.16689e-08
      vertex -15.55 14.5166 2.8
    endloop
  endfacet
  facet normal -1 0 -2.22045e-16
    outer loop
      vertex -15.55 12.0051 1.55
      vertex -15.55 14.5166 2.8
      vertex -15.55 13.7949 1.55
    endloop
  endfacet
  facet normal -1 0 -2.22045e-16
    outer loop
      vertex -15.55 13.7949 -1.55
      vertex -15.55 11.2834 -2.8
      vertex -15.55 12.0051 -1.55
    endloop
  endfacet
  facet normal 0 -1 0
    outer loop
      vertex -13.95 1.55 4.2
      vertex -13.95 1.55 4.81
      vertex -18.05 1.55 4.81
    endloop
  endfacet
  facet normal 0 -1 0
    outer loop
      vertex -18.05 1.55 4.2
      vertex -13.95 1.55 4.2
      vertex -18.05 1.55 4.81
    endloop
  endfacet
  facet normal 0 0 1
    outer loop
      vertex -13.95 -1.55 4.2
      vertex -13.95 1.55 4.2
      vertex -18.05 1.55 4.2
    endloop
  endfacet
  facet normal 0 0 1
    outer loop
      vertex -18.05 -1.55 4.2
      vertex -13.95 -1.55 4.2
      vertex -18.05 1.55 4.2
    endloop
  endfacet
  facet normal 1 0 2.22045e-16
    outer loop
      vertex 1.6 12.0051 -1.55
      vertex 1.6 11.2834 -2.8
      vertex 1.6 14.5166 -2.8
    endloop
  endfacet
  facet normal 1 0 2.22045e-16
    outer loop
      vertex 1.6 11.1102 7.16689e-08
      vertex 1.6 12.0051 1.55
      vertex 1.6 9.66684 2.13275e-07
    endloop
  endfacet
  facet normal 1 0 2.22045e-16
    outer loop
      vertex 1.6 12.0051 -1.55
      vertex 1.6 11.1102 7.16689e-08
      vertex 1.6 9.66684 2.13275e-07
    endloop
  endfacet
  facet normal 1 0 2.22045e-16
    outer loop
      vertex 1.6 14.5166 2.8
      vertex 1.6 13.7949 1.55
      vertex 1.6 16.1332 -2.13275e-07
    endloop
  endfacet
  facet normal 1 0 2.22045e-16
    outer loop
      vertex 1.6 13.7949 1.55
      vertex 1.6 14.6898 -7.16689e-08
      vertex 1.6 16.1332 -2.13275e-07
    endloop
  endfacet
  facet normal 1 0 2.22045e-16
    outer loop
      vertex 1.6 16.1332 -2.13275e-07
      vertex 1.6 13.7949 -1.55
      vertex 1.6 14.5166 -2.8
    endloop
  endfacet
  facet normal 1 0 2.22045e-16
    outer loop
      vertex 1.6 9.66684 2.13275e-07
      vertex 1.6 11.2834 -2.8
      vertex 1.6 12.0051 -1.55
    endloop
  endfacet
  facet normal 1 0 2.22045e-16
    outer loop
      vertex 1.6 13.7949 -1.55
      vertex 1.6 12.0051 -1.55
      vertex 1.6 14.5166 -2.8
    endloop
  endfacet
  facet normal 1 0 2.22045e-16
    outer loop
      vertex 1.6 11.2834 2.8
      vertex 1.6 12.0051 1.55
      vertex 1.6 14.5166 2.8
    endloop
  endfacet
  facet normal 1 0 2.22045e-16
    outer loop
      vertex 1.6 11.2834 2.8
      vertex 1.6 9.66684 2.13275e-07
      vertex 1.6 12.0051 1.55
    endloop
  endfacet
  facet normal 1 0 2.22045e-16
    outer loop
      vertex 1.6 12.0051 1.55
      vertex 1.6 13.7949 1.55
      vertex 1.6 14.5166 2.8
    endloop
  endfacet
  facet normal 1 0 2.22045e-16
    outer loop
      vertex 1.6 14.6898 -7.16689e-08
      vertex 1.6 13.7949 -1.55
      vertex 1.6 16.1332 -2.13275e-07
    endloop
  endfacet
endsolid OpenSCAD_Model
